<?xml version="1.0" encoding="utf-8"?>
<!-- Generator: Adobe Illustrator 14.0.0, SVG Export Plug-In . SVG Version: 6.00 Build 43363)  -->
<!DOCTYPE svg PUBLIC "-//W3C//DTD SVG 1.1//EN" "http://www.w3.org/Graphics/SVG/1.1/DTD/svg11.dtd">
<svg version="1.1" id="Ebene_1" xmlns="http://www.w3.org/2000/svg" xmlns:xlink="http://www.w3.org/1999/xlink" x="0px" y="0px"
	 width="156px" height="105px" viewBox="0 0 156 105" enable-background="new 0 0 156 105" xml:space="preserve">
<g>
	<defs>
		<rect id="SVGID_1_" x="-362.5" y="-202.5" width="960" height="540"/>
	</defs>
	<clipPath id="SVGID_2_">
		<use xlink:href="#SVGID_1_"  overflow="visible"/>
	</clipPath>
	
		<rect x="-362.5" y="-202.5" clip-path="url(#SVGID_2_)" fill-rule="evenodd" clip-rule="evenodd" fill="#FFFFFF" width="960" height="540"/>
</g>
<g>
	<defs>
		<rect id="SVGID_3_" x="-362.5" y="-202.5" width="960" height="540"/>
	</defs>
	<clipPath id="SVGID_4_">
		<use xlink:href="#SVGID_3_"  overflow="visible"/>
	</clipPath>
	<g clip-path="url(#SVGID_4_)">
		<path d="M26.19,48.304c-0.672,0-1.26-0.259-1.764-0.777c-0.504-0.518-0.756-1.12-0.756-1.806s0.252-1.267,0.756-1.743
			c0.504-0.476,1.092-0.714,1.764-0.714s1.26,0.238,1.764,0.714c0.504,0.477,0.756,1.057,0.756,1.743s-0.252,1.288-0.756,1.806
			C27.45,48.045,26.862,48.304,26.19,48.304z M24.342,70.648V50.446c1.875,0,2.968,0.105,3.276,0.315
			c0.308,0.21,0.462,0.945,0.462,2.205v20.202c-1.876,0-2.968-0.104-3.276-0.315C24.496,72.643,24.342,71.908,24.342,70.648z"/>
		<path d="M43.368,61.786l0.042-3.696c0-1.12-0.028-1.959-0.084-2.52c-0.112-1.176-0.77-1.792-1.974-1.848l-3.864,1.134l0.378,1.176
			V73c-1.876,0-2.968-0.105-3.276-0.315c-0.309-0.21-0.462-0.944-0.462-2.204V50.446c1.624,0,2.646,0.042,3.066,0.126
			s0.644,0.336,0.672,0.756l3.108-1.176c1.708,0,2.828,0.112,3.36,0.336c0.531,0.225,0.938,0.42,1.218,0.588
			c0.28,0.168,0.532,0.511,0.756,1.029c0.224,0.519,0.378,0.994,0.462,1.428s0.168,1.127,0.252,2.079
			c0.084,1.373,0.126,3.444,0.126,6.216V73c-1.876,0-2.976-0.105-3.297-0.315c-0.322-0.21-0.483-0.944-0.483-2.204V61.786z"/>
		<path d="M60.377,50.446c0,1.596-0.147,2.583-0.441,2.961c-0.294,0.378-1.155,0.567-2.583,0.567h-1.218l0.378,1.05v8.316
			c0,2.38,0.091,4.011,0.273,4.894c0.182,0.882,0.567,1.379,1.155,1.49h3.192V73l-3.402,0.21c-1.4,0-2.325-0.141-2.772-0.42
			c-0.448-0.279-0.784-0.504-1.008-0.672c-0.225-0.168-0.42-0.511-0.588-1.029c-0.168-0.518-0.294-0.938-0.378-1.26
			c-0.084-0.321-0.147-0.909-0.189-1.764c-0.042-0.854-0.063-1.561-0.063-2.122v-10.92l0.336-1.05h-2.226v-3.528h2.226l-0.336-1.554
			V46.75c1.875,0,2.975,0.091,3.297,0.273c0.322,0.183,0.483,0.847,0.483,1.995l-0.336,1.428H60.377z"/>
		<path d="M72.641,55.654l0.042-1.134c0-0.392-0.042-0.602-0.126-0.63c-0.084-0.028-0.183-0.091-0.294-0.189
			c-0.112-0.098-0.259-0.119-0.441-0.063s-0.399,0.07-0.651,0.042l-2.268,0.294c-0.588,0.084-1.092,0.126-1.512,0.126
			s-0.742-0.098-0.966-0.294c-0.224-0.196-0.448-1.092-0.672-2.688l4.872-0.966c1.988,0,3.234,0.147,3.738,0.441
			c0.504,0.294,0.868,0.54,1.092,0.735c0.224,0.196,0.378,0.588,0.462,1.176c0.14,0.729,0.21,1.876,0.21,3.444V73
			c-1.624,0-2.646-0.084-3.066-0.252s-0.645-0.573-0.672-1.218l-3.486,1.764c-0.784,0-1.365-0.007-1.743-0.021
			c-0.378-0.015-0.756-0.134-1.134-0.357s-0.63-0.447-0.756-0.672c-0.126-0.224-0.246-0.699-0.357-1.428
			c-0.141-0.868-0.21-2.646-0.21-5.334v-2.898c0-3.164,2.757-4.802,8.274-4.914l-0.336-1.008V55.654z M68.651,69.724
			c0.028,0,1.442-0.531,4.242-1.596l-0.42-1.218v-4.998l0.336-0.966c-1.148,0.028-2.157,0.141-3.024,0.336
			c-0.868,0.196-1.302,0.462-1.302,0.798l-0.042,5.544C68.441,69.024,68.511,69.724,68.651,69.724z"/>
		<path d="M93.095,50.908c0.14,0.168,0.21,0.322,0.21,0.462s-0.015,0.238-0.042,0.294c-0.028,0.225-0.126,0.729-0.294,1.512
			L88.937,73h-4.662l-4.62-22.554c1.232,0,2.1,0.063,2.604,0.189c0.504,0.126,0.847,0.33,1.029,0.609
			c0.182,0.28,0.357,0.813,0.525,1.596l2.814,15.162h0.126l3.108-17.556C91.765,50.446,92.843,50.6,93.095,50.908z"/>
		<path d="M99.814,48.304c-0.672,0-1.26-0.259-1.764-0.777c-0.504-0.518-0.756-1.12-0.756-1.806s0.252-1.267,0.756-1.743
			c0.504-0.476,1.092-0.714,1.764-0.714s1.26,0.238,1.764,0.714c0.504,0.477,0.756,1.057,0.756,1.743s-0.252,1.288-0.756,1.806
			C101.074,48.045,100.486,48.304,99.814,48.304z M97.966,70.648V50.446c1.875,0,2.968,0.105,3.276,0.315
			c0.308,0.21,0.462,0.945,0.462,2.205v20.202c-1.876,0-2.968-0.104-3.276-0.315C98.12,72.643,97.966,71.908,97.966,70.648z"/>
		<path d="M115.229,55.654l0.042-1.134c0-0.392-0.042-0.602-0.126-0.63c-0.084-0.028-0.183-0.091-0.294-0.189
			c-0.112-0.098-0.259-0.119-0.441-0.063s-0.399,0.07-0.651,0.042l-2.268,0.294c-0.588,0.084-1.092,0.126-1.512,0.126
			s-0.742-0.098-0.966-0.294c-0.224-0.196-0.448-1.092-0.672-2.688l4.872-0.966c1.988,0,3.234,0.147,3.738,0.441
			c0.504,0.294,0.868,0.54,1.092,0.735c0.225,0.196,0.378,0.588,0.462,1.176c0.141,0.729,0.211,1.876,0.211,3.444V73
			c-1.625,0-2.646-0.084-3.066-0.252s-0.645-0.573-0.672-1.218l-3.486,1.764c-0.784,0-1.365-0.007-1.743-0.021
			c-0.378-0.015-0.756-0.134-1.134-0.357s-0.63-0.447-0.756-0.672c-0.126-0.224-0.246-0.699-0.357-1.428
			c-0.141-0.868-0.21-2.646-0.21-5.334v-2.898c0-3.164,2.757-4.802,8.274-4.914l-0.336-1.008V55.654z M111.238,69.724
			c0.028,0,1.442-0.531,4.242-1.596l-0.42-1.218v-4.998l0.336-0.966c-1.148,0.028-2.157,0.141-3.024,0.336
			c-0.868,0.196-1.302,0.462-1.302,0.798l-0.042,5.544C111.028,69.024,111.098,69.724,111.238,69.724z"/>
	</g>
</g>
<path fill="none" stroke="#00B050" stroke-width="2.28" stroke-miterlimit="10" d="M7.76,98.52C7.76,90.7,21.03,84.36,37.4,84.36
	S67.04,90.7,67.04,98.52"/>
<path fill="none" stroke="#00B050" stroke-width="2.28" stroke-miterlimit="10" d="M7.76,41.76c0-7.75,13.27-14.04,29.64-14.04
	s29.64,6.29,29.64,14.04"/>
<line fill="none" stroke="#00B050" stroke-width="2.28" stroke-miterlimit="10" x1="67.04" y1="79.32" x2="67.04" y2="98.46"/>
<line fill="none" stroke="#00B050" stroke-width="2.28" stroke-miterlimit="10" x1="7.76" y1="41.76" x2="7.76" y2="98.47"/>
<line fill="none" stroke="#00B050" stroke-width="2.28" stroke-miterlimit="10" x1="67.04" y1="41.76" x2="67.04" y2="46.83"/>
<rect x="83.48" y="20.04" fill-rule="evenodd" clip-rule="evenodd" fill="#FFFFFF" width="18.48" height="11.76"/>
<rect x="83.48" y="20.04" fill="none" stroke="#92D050" stroke-width="2.28" stroke-miterlimit="10" width="18.48" height="11.76"/>
<rect x="117.92" y="7.2" fill-rule="evenodd" clip-rule="evenodd" fill="#FFFFFF" width="18.36" height="11.76"/>
<rect x="117.92" y="7.2" fill="none" stroke="#92D050" stroke-width="2.28" stroke-miterlimit="10" width="18.36" height="11.76"/>
<rect x="99.2" y="88.44" fill-rule="evenodd" clip-rule="evenodd" fill="#FFFFFF" width="18.36" height="11.76"/>
<rect x="99.2" y="88.44" fill="none" stroke="#92D050" stroke-width="2.28" stroke-miterlimit="10" width="18.36" height="11.76"/>
<rect x="132.68" y="36.24" fill-rule="evenodd" clip-rule="evenodd" fill="#FFFFFF" width="18.36" height="11.76"/>
<rect x="132.68" y="36.24" fill="none" stroke="#92D050" stroke-width="2.28" stroke-miterlimit="10" width="18.36" height="11.76"/>
</svg>
