<?xml version="1.0" encoding="utf-8"?>
<!-- Generator: Adobe Illustrator 14.0.0, SVG Export Plug-In . SVG Version: 6.00 Build 43363)  -->
<!DOCTYPE svg PUBLIC "-//W3C//DTD SVG 1.1//EN" "http://www.w3.org/Graphics/SVG/1.1/DTD/svg11.dtd">
<svg version="1.1" id="Ebene_1" xmlns="http://www.w3.org/2000/svg" xmlns:xlink="http://www.w3.org/1999/xlink" x="0px" y="0px"
	 width="960px" height="540px" viewBox="0 0 960 540" enable-background="new 0 0 960 540" xml:space="preserve">
<g>
	<defs>
		<rect id="SVGID_1_" width="960" height="540"/>
	</defs>
	<clipPath id="SVGID_2_">
		<use xlink:href="#SVGID_1_"  overflow="visible"/>
	</clipPath>
	<rect clip-path="url(#SVGID_2_)" fill-rule="evenodd" clip-rule="evenodd" fill="#FFFFFF" width="960" height="540"/>
</g>
<g>
	<defs>
		<rect id="SVGID_3_" width="960" height="540"/>
	</defs>
	<clipPath id="SVGID_4_">
		<use xlink:href="#SVGID_3_"  overflow="visible"/>
	</clipPath>
	<g clip-path="url(#SVGID_4_)">
		<path d="M320.5,249.844c-0.672,0-1.26-0.259-1.764-0.777c-0.504-0.518-0.756-1.12-0.756-1.806s0.252-1.267,0.756-1.743
			c0.504-0.476,1.092-0.714,1.764-0.714s1.26,0.238,1.764,0.714c0.504,0.477,0.756,1.057,0.756,1.743s-0.252,1.288-0.756,1.806
			C321.76,249.585,321.172,249.844,320.5,249.844z M318.652,272.188v-20.203c1.875,0,2.968,0.105,3.276,0.315
			c0.308,0.21,0.462,0.945,0.462,2.205v20.202c-1.876,0-2.968-0.104-3.276-0.315C318.806,274.183,318.652,273.448,318.652,272.188z"
			/>
		<path d="M337.678,263.326l0.042-3.696c0-1.12-0.028-1.959-0.084-2.52c-0.112-1.176-0.77-1.792-1.974-1.848l-3.864,1.134
			l0.378,1.176v16.968c-1.876,0-2.968-0.105-3.276-0.315c-0.309-0.21-0.462-0.944-0.462-2.204v-20.035
			c1.624,0,2.646,0.042,3.066,0.126s0.644,0.336,0.672,0.756l3.108-1.176c1.708,0,2.828,0.112,3.36,0.336
			c0.531,0.225,0.938,0.42,1.218,0.588c0.28,0.168,0.532,0.511,0.756,1.029c0.224,0.519,0.378,0.994,0.462,1.428
			s0.168,1.127,0.252,2.079c0.084,1.373,0.126,3.444,0.126,6.216v11.172c-1.876,0-2.976-0.105-3.297-0.315
			c-0.322-0.21-0.483-0.944-0.483-2.204V263.326z"/>
		<path d="M354.688,251.986c0,1.596-0.147,2.583-0.441,2.961c-0.294,0.378-1.155,0.567-2.583,0.567h-1.218l0.378,1.05v8.316
			c0,2.38,0.091,4.011,0.273,4.893c0.182,0.882,0.567,1.379,1.155,1.491h3.192v3.276l-3.402,0.21c-1.4,0-2.325-0.141-2.772-0.42
			c-0.448-0.279-0.784-0.504-1.008-0.672c-0.225-0.168-0.42-0.511-0.588-1.029c-0.168-0.518-0.294-0.938-0.378-1.26
			c-0.084-0.321-0.147-0.91-0.189-1.764c-0.042-0.854-0.063-1.561-0.063-2.121v-10.92l0.336-1.05h-2.226v-3.528h2.226l-0.336-1.554
			v-2.142c1.875,0,2.975,0.091,3.297,0.273c0.322,0.183,0.483,0.847,0.483,1.995l-0.336,1.428H354.688z"/>
		<path d="M366.951,257.194l0.042-1.134c0-0.392-0.042-0.602-0.126-0.63c-0.084-0.028-0.183-0.091-0.294-0.189
			c-0.112-0.098-0.259-0.119-0.441-0.063s-0.399,0.07-0.651,0.042l-2.268,0.294c-0.588,0.084-1.092,0.126-1.512,0.126
			s-0.742-0.098-0.966-0.294c-0.224-0.196-0.448-1.092-0.672-2.688l4.872-0.966c1.988,0,3.234,0.147,3.738,0.441
			c0.504,0.294,0.868,0.54,1.092,0.735c0.224,0.196,0.378,0.588,0.462,1.176c0.14,0.729,0.21,1.876,0.21,3.444v17.052
			c-1.624,0-2.646-0.084-3.066-0.252s-0.645-0.573-0.672-1.218l-3.486,1.764c-0.784,0-1.365-0.007-1.743-0.021
			c-0.378-0.015-0.756-0.134-1.134-0.357s-0.63-0.447-0.756-0.672c-0.126-0.224-0.246-0.699-0.357-1.428
			c-0.141-0.868-0.21-2.646-0.21-5.334v-2.898c0-3.164,2.757-4.802,8.274-4.914l-0.336-1.008V257.194z M362.961,271.264
			c0.028,0,1.442-0.531,4.242-1.596l-0.42-1.218v-4.998l0.336-0.966c-1.148,0.028-2.157,0.141-3.024,0.336
			c-0.868,0.196-1.302,0.462-1.302,0.798l-0.042,5.544C362.751,270.564,362.821,271.264,362.961,271.264z"/>
		<path d="M387.405,252.448c0.14,0.168,0.21,0.322,0.21,0.462s-0.015,0.238-0.042,0.294c-0.028,0.225-0.126,0.729-0.294,1.512
			l-4.032,19.824h-4.662l-4.62-22.554c1.232,0,2.1,0.063,2.604,0.189c0.504,0.126,0.847,0.33,1.029,0.609
			c0.182,0.28,0.357,0.813,0.525,1.596l2.814,15.162h0.126l3.108-17.556C386.075,251.986,387.153,252.14,387.405,252.448z"/>
		<path d="M394.125,249.844c-0.672,0-1.26-0.259-1.764-0.777c-0.504-0.518-0.756-1.12-0.756-1.806s0.252-1.267,0.756-1.743
			c0.504-0.476,1.092-0.714,1.764-0.714s1.26,0.238,1.764,0.714c0.504,0.477,0.756,1.057,0.756,1.743s-0.252,1.288-0.756,1.806
			C395.384,249.585,394.796,249.844,394.125,249.844z M392.276,272.188v-20.203c1.875,0,2.968,0.105,3.276,0.315
			c0.308,0.21,0.462,0.945,0.462,2.205v20.202c-1.876,0-2.968-0.104-3.276-0.315C392.43,274.183,392.276,273.448,392.276,272.188z"
			/>
		<path d="M409.497,257.194l0.042-1.134c0-0.392-0.042-0.602-0.126-0.63c-0.084-0.028-0.183-0.091-0.294-0.189
			c-0.112-0.098-0.259-0.119-0.441-0.063s-0.399,0.07-0.651,0.042l-2.268,0.294c-0.588,0.084-1.092,0.126-1.512,0.126
			s-0.742-0.098-0.966-0.294c-0.224-0.196-0.448-1.092-0.672-2.688l4.872-0.966c1.988,0,3.234,0.147,3.738,0.441
			c0.504,0.294,0.868,0.54,1.092,0.735c0.224,0.196,0.378,0.588,0.462,1.176c0.14,0.729,0.21,1.876,0.21,3.444v17.052
			c-1.624,0-2.646-0.084-3.066-0.252s-0.645-0.573-0.672-1.218l-3.486,1.764c-0.784,0-1.365-0.007-1.743-0.021
			c-0.378-0.015-0.756-0.134-1.134-0.357s-0.63-0.447-0.756-0.672c-0.126-0.224-0.246-0.699-0.357-1.428
			c-0.141-0.868-0.21-2.646-0.21-5.334v-2.898c0-3.164,2.757-4.802,8.274-4.914l-0.336-1.008V257.194z M405.506,271.264
			c0.028,0,1.442-0.531,4.242-1.596l-0.42-1.218v-4.998l0.336-0.966c-1.148,0.028-2.157,0.141-3.024,0.336
			c-0.868,0.196-1.302,0.462-1.302,0.798l-0.042,5.544C405.296,270.564,405.366,271.264,405.506,271.264z"/>
	</g>
</g>
<path fill="none" stroke="#00B050" stroke-width="2.28" stroke-miterlimit="10" d="M297.54,299.94c0-7.75,13.27-14.04,29.64-14.04
	c16.37,0,29.64,6.29,29.64,14.04"/>
<path fill="none" stroke="#00B050" stroke-width="2.28" stroke-miterlimit="10" d="M297.54,243.3c0-7.75,13.27-14.04,29.64-14.04
	c16.37,0,29.64,6.29,29.64,14.04"/>
<line fill="none" stroke="#00B050" stroke-width="2.28" stroke-miterlimit="10" x1="356.82" y1="280.86" x2="356.82" y2="300"/>
<line fill="none" stroke="#00B050" stroke-width="2.28" stroke-miterlimit="10" x1="297.54" y1="243.3" x2="297.54" y2="300.01"/>
<line fill="none" stroke="#00B050" stroke-width="2.28" stroke-miterlimit="10" x1="356.82" y1="243.3" x2="356.82" y2="248.37"/>
<rect x="374.94" y="221.58" fill-rule="evenodd" clip-rule="evenodd" fill="#FFFFFF" width="18.36" height="11.76"/>
<rect x="374.94" y="221.58" fill="none" stroke="#92D050" stroke-width="2.28" stroke-miterlimit="10" width="18.36" height="11.76"/>
<rect x="409.98" y="208.74" fill-rule="evenodd" clip-rule="evenodd" fill="#FFFFFF" width="18.36" height="11.76"/>
<rect x="409.98" y="208.74" fill="none" stroke="#92D050" stroke-width="2.28" stroke-miterlimit="10" width="18.36" height="11.76"/>
<rect x="386.46" y="289.98" fill-rule="evenodd" clip-rule="evenodd" fill="#FFFFFF" width="18.48" height="11.76"/>
<rect x="386.46" y="289.98" fill="none" stroke="#92D050" stroke-width="2.28" stroke-miterlimit="10" width="18.48" height="11.76"/>
<rect x="427.86" y="233.34" fill-rule="evenodd" clip-rule="evenodd" fill="#FFFFFF" width="18.36" height="11.76"/>
<rect x="427.86" y="233.34" fill="none" stroke="#92D050" stroke-width="2.28" stroke-miterlimit="10" width="18.36" height="11.76"/>
<g>
	<defs>
		<rect id="SVGID_5_" width="960" height="540"/>
	</defs>
	<clipPath id="SVGID_6_">
		<use xlink:href="#SVGID_5_"  overflow="visible"/>
	</clipPath>
	<g clip-path="url(#SVGID_6_)">
		<path fill="#876957" d="M429.741,273.91v-12.604h1.134v12.604H429.741z"/>
		<path fill="#876957" d="M438.274,273.91v-6.592c0-0.217-0.041-0.42-0.123-0.611s-0.193-0.356-0.334-0.497
			s-0.306-0.252-0.497-0.334s-0.394-0.123-0.611-0.123h-0.721c-0.217,0-0.42,0.041-0.611,0.123s-0.356,0.193-0.497,0.334
			s-0.252,0.306-0.334,0.497s-0.123,0.394-0.123,0.611v6.592h-1.081v-9h0.36l0.589,0.914c0.246-0.334,0.555-0.599,0.927-0.795
			s0.778-0.294,1.217-0.294h0.272c0.363,0,0.706,0.069,1.028,0.207s0.604,0.327,0.844,0.567s0.429,0.521,0.567,0.844
			s0.207,0.665,0.207,1.028v6.53H438.274z"/>
		<path fill="#876957" d="M440.796,274.991l5.019-14.757h1.134l-5.019,14.757H440.796z"/>
		<path fill="#876957" d="M451.809,262.388v11.522h-1.134v-11.522h-3.006v-1.081h7.146v1.081H451.809z"/>
		<path fill="#876957" d="M461.08,273.91l-0.598-0.896c-0.246,0.322-0.554,0.582-0.923,0.777c-0.369,0.196-0.773,0.295-1.213,0.295
			h-0.272c-0.363,0-0.706-0.069-1.028-0.207c-0.322-0.137-0.604-0.326-0.844-0.566s-0.429-0.521-0.567-0.844
			s-0.207-0.665-0.207-1.028v-0.088c0-0.363,0.069-0.706,0.207-1.028s0.327-0.604,0.567-0.844s0.521-0.429,0.844-0.567
			s0.665-0.207,1.028-0.207h2.285v-1.389c0-0.217-0.041-0.42-0.123-0.611s-0.193-0.356-0.334-0.497s-0.306-0.252-0.497-0.334
			s-0.394-0.123-0.611-0.123h-0.633c-0.217,0-0.42,0.041-0.611,0.123s-0.356,0.193-0.497,0.334s-0.252,0.306-0.334,0.497
			s-0.123,0.394-0.123,0.611v0.325l-1.081-0.176v-0.088c0-0.363,0.069-0.706,0.207-1.028s0.327-0.604,0.567-0.844
			s0.521-0.429,0.844-0.567s0.665-0.207,1.028-0.207h0.633c0.363,0,0.706,0.069,1.028,0.207s0.604,0.327,0.844,0.567
			s0.429,0.521,0.567,0.844s0.207,0.665,0.207,1.028v6.53H461.08z M460.359,269.551h-2.285c-0.217,0-0.42,0.041-0.611,0.123
			s-0.356,0.195-0.497,0.338s-0.252,0.311-0.334,0.501c-0.082,0.19-0.123,0.394-0.123,0.61v0.378c0,0.217,0.041,0.421,0.123,0.611
			s0.193,0.355,0.334,0.496s0.306,0.252,0.497,0.334s0.394,0.123,0.611,0.123h0.721c0.217,0,0.42-0.041,0.611-0.123
			s0.356-0.193,0.497-0.334s0.252-0.306,0.334-0.496s0.123-0.395,0.123-0.611V269.551z"/>
		<path fill="#876957" d="M468.533,273.91v-6.592c0-0.217-0.041-0.42-0.123-0.611s-0.193-0.356-0.334-0.497
			s-0.306-0.252-0.497-0.334s-0.394-0.123-0.611-0.123h-0.721c-0.217,0-0.42,0.041-0.611,0.123s-0.356,0.193-0.497,0.334
			s-0.252,0.306-0.334,0.497s-0.123,0.394-0.123,0.611v6.592h-1.081v-9h0.36l0.589,0.914c0.246-0.334,0.555-0.599,0.927-0.795
			s0.778-0.294,1.217-0.294h0.272c0.363,0,0.706,0.069,1.028,0.207s0.604,0.327,0.844,0.567s0.429,0.521,0.567,0.844
			s0.207,0.665,0.207,1.028v6.53H468.533z"/>
		<path fill="#876957" d="M477.669,276.046c-0.138,0.305-0.327,0.565-0.567,0.782s-0.521,0.385-0.844,0.506
			c-0.322,0.119-0.665,0.18-1.028,0.18h-0.448c-0.363,0-0.706-0.061-1.028-0.18c-0.322-0.121-0.604-0.289-0.844-0.506
			s-0.429-0.478-0.567-0.782s-0.207-0.639-0.207-1.002v-0.035c0-0.352,0.064-0.674,0.193-0.967s0.305-0.548,0.527-0.765
			c-0.281-0.17-0.505-0.4-0.672-0.689c-0.167-0.291-0.25-0.611-0.25-0.963c0-0.316,0.067-0.611,0.202-0.883
			c0.135-0.273,0.319-0.494,0.554-0.664c-0.281-0.246-0.504-0.542-0.668-0.888s-0.246-0.724-0.246-1.134v-0.677
			c0-0.363,0.069-0.706,0.207-1.028s0.327-0.604,0.567-0.844s0.521-0.429,0.844-0.567s0.665-0.207,1.028-0.207h0.448
			c0.439,0,0.845,0.098,1.217,0.294s0.681,0.461,0.927,0.795l0.589-0.914h0.36v3.146c0,0.363-0.069,0.706-0.207,1.028
			s-0.327,0.604-0.567,0.844s-0.521,0.429-0.844,0.567c-0.322,0.138-0.665,0.207-1.028,0.207h-1.564
			c-0.123,0-0.24,0.025-0.352,0.075s-0.209,0.115-0.294,0.197s-0.151,0.18-0.198,0.295c-0.047,0.113-0.07,0.232-0.07,0.355
			s0.023,0.24,0.07,0.352s0.113,0.21,0.198,0.295s0.183,0.15,0.294,0.197s0.229,0.07,0.352,0.07h1.477
			c0.363,0,0.706,0.061,1.028,0.18c0.322,0.121,0.604,0.289,0.844,0.506s0.429,0.478,0.567,0.782s0.207,0.639,0.207,1.002v0.035
			C477.876,275.407,477.807,275.741,477.669,276.046z M476.892,267.318c0-0.217-0.041-0.42-0.123-0.611s-0.195-0.356-0.338-0.497
			s-0.311-0.252-0.501-0.334s-0.394-0.123-0.611-0.123h-0.896c-0.217,0-0.42,0.041-0.611,0.123s-0.356,0.193-0.497,0.334
			s-0.252,0.306-0.334,0.497s-0.123,0.394-0.123,0.611v0.8c0,0.217,0.041,0.42,0.123,0.611s0.193,0.356,0.334,0.497
			s0.306,0.252,0.497,0.334s0.394,0.123,0.611,0.123h0.896c0.217,0,0.42-0.041,0.611-0.123s0.357-0.193,0.501-0.334
			s0.256-0.306,0.338-0.497s0.123-0.394,0.123-0.611V267.318z M476.848,274.956c0-0.217-0.041-0.412-0.123-0.585
			s-0.193-0.317-0.334-0.435s-0.306-0.208-0.497-0.272s-0.394-0.097-0.611-0.097h-0.554c-0.217,0-0.42,0.032-0.611,0.097
			s-0.356,0.155-0.497,0.272s-0.252,0.262-0.334,0.435s-0.123,0.368-0.123,0.585v0.141c0,0.217,0.041,0.41,0.123,0.58
			s0.193,0.314,0.334,0.435s0.306,0.213,0.497,0.277s0.394,0.097,0.611,0.097h0.554c0.217,0,0.42-0.032,0.611-0.097
			s0.356-0.157,0.497-0.277s0.252-0.265,0.334-0.435s0.123-0.363,0.123-0.58V274.956z"/>
		<path fill="#876957" d="M480.223,262.748v-1.441h1.257v1.441H480.223z M480.311,273.91v-9h1.081v9H480.311z"/>
		<path fill="#876957" d="M489.719,272.469c-0.138,0.322-0.326,0.604-0.566,0.844s-0.521,0.43-0.844,0.566
			c-0.322,0.138-0.665,0.207-1.028,0.207h-0.721c-0.363,0-0.706-0.069-1.028-0.207c-0.322-0.137-0.604-0.326-0.844-0.566
			s-0.43-0.521-0.566-0.844c-0.139-0.322-0.207-0.665-0.207-1.028v-10.134h1.081v4.359c0.246-0.293,0.542-0.521,0.888-0.686
			s0.721-0.246,1.125-0.246h0.272c0.363,0,0.706,0.069,1.028,0.207s0.604,0.327,0.844,0.567s0.429,0.521,0.566,0.844
			s0.207,0.665,0.207,1.028v4.061C489.926,271.804,489.856,272.146,489.719,272.469z M488.845,267.318
			c0-0.217-0.041-0.42-0.123-0.611s-0.193-0.356-0.334-0.497s-0.307-0.252-0.497-0.334s-0.394-0.123-0.61-0.123h-0.721
			c-0.217,0-0.421,0.041-0.61,0.123c-0.191,0.082-0.356,0.193-0.497,0.334s-0.252,0.306-0.334,0.497s-0.123,0.394-0.123,0.611v4.184
			c0,0.217,0.041,0.421,0.123,0.611s0.193,0.355,0.334,0.496s0.306,0.252,0.497,0.334c0.189,0.082,0.394,0.123,0.61,0.123h0.721
			c0.217,0,0.42-0.041,0.61-0.123s0.356-0.193,0.497-0.334s0.252-0.306,0.334-0.496s0.123-0.395,0.123-0.611V267.318z"/>
		<path fill="#876957" d="M492.286,273.91v-12.604h1.081v12.604H492.286z"/>
		<path fill="#876957" d="M501.695,272.469c-0.139,0.322-0.327,0.604-0.567,0.844s-0.521,0.43-0.844,0.566
			c-0.322,0.138-0.665,0.207-1.028,0.207h-0.721c-0.363,0-0.706-0.069-1.028-0.207c-0.322-0.137-0.604-0.326-0.844-0.566
			s-0.43-0.521-0.567-0.844s-0.206-0.665-0.206-1.028v-4.061c0-0.363,0.068-0.706,0.206-1.028s0.327-0.604,0.567-0.844
			s0.521-0.429,0.844-0.567s0.665-0.207,1.028-0.207h0.721c0.363,0,0.706,0.069,1.028,0.207s0.604,0.327,0.844,0.567
			s0.429,0.521,0.567,0.844c0.137,0.322,0.206,0.665,0.206,1.028v2.118h-4.931v2.004c0,0.217,0.041,0.421,0.123,0.611
			s0.193,0.355,0.334,0.496s0.306,0.252,0.496,0.334s0.395,0.123,0.611,0.123h0.721c0.217,0,0.42-0.041,0.611-0.123
			c0.189-0.082,0.355-0.193,0.496-0.334s0.252-0.306,0.334-0.496s0.123-0.395,0.123-0.611v-0.598l1.081,0.176v0.36
			C501.901,271.804,501.832,272.146,501.695,272.469z M500.82,267.318c0-0.217-0.041-0.42-0.123-0.611s-0.193-0.356-0.334-0.497
			s-0.307-0.252-0.496-0.334c-0.191-0.082-0.395-0.123-0.611-0.123h-0.721c-0.217,0-0.421,0.041-0.611,0.123
			s-0.355,0.193-0.496,0.334s-0.252,0.306-0.334,0.497s-0.123,0.394-0.123,0.611v1.336h3.85V267.318z"/>
		<path fill="#876957" d="M508.384,273.91v-12.604h7.093v1.081h-5.959v4.685h4.825v1.081h-4.825v4.676h5.959v1.081H508.384z"/>
		<path fill="#876957" d="M522.93,273.91l-0.598-0.914c-0.246,0.334-0.554,0.6-0.923,0.795c-0.369,0.196-0.773,0.295-1.213,0.295
			h-0.272c-0.363,0-0.706-0.069-1.028-0.207c-0.322-0.137-0.604-0.326-0.844-0.566s-0.43-0.521-0.567-0.844
			s-0.206-0.665-0.206-1.028v-6.53h1.081v6.592c0,0.217,0.041,0.421,0.123,0.611s0.193,0.355,0.334,0.496s0.306,0.252,0.496,0.334
			s0.395,0.123,0.611,0.123h0.721c0.217,0,0.42-0.041,0.611-0.123c0.189-0.082,0.355-0.193,0.496-0.334s0.252-0.306,0.334-0.496
			s0.123-0.395,0.123-0.611v-6.592h1.081v9H522.93z"/>
		<path fill="#876957" d="M528.098,265.938c-0.217,0-0.421,0.041-0.611,0.123s-0.355,0.193-0.496,0.334s-0.252,0.306-0.334,0.497
			s-0.123,0.394-0.123,0.611v6.407h-1.081v-9h0.36l0.589,0.914c0.246-0.334,0.555-0.599,0.927-0.795s0.778-0.294,1.218-0.294h0.633
			v1.204H528.098z"/>
		<path fill="#876957" d="M536.426,272.469c-0.139,0.322-0.327,0.604-0.567,0.844s-0.521,0.43-0.844,0.566
			c-0.322,0.138-0.665,0.207-1.028,0.207h-0.721c-0.363,0-0.706-0.069-1.028-0.207c-0.322-0.137-0.604-0.326-0.844-0.566
			s-0.43-0.521-0.567-0.844s-0.206-0.665-0.206-1.028v-4.061c0-0.363,0.068-0.706,0.206-1.028s0.327-0.604,0.567-0.844
			s0.521-0.429,0.844-0.567s0.665-0.207,1.028-0.207h0.721c0.363,0,0.706,0.069,1.028,0.207s0.604,0.327,0.844,0.567
			s0.429,0.521,0.567,0.844c0.137,0.322,0.206,0.665,0.206,1.028v4.061C536.632,271.804,536.563,272.146,536.426,272.469z
			 M535.551,267.318c0-0.217-0.041-0.42-0.123-0.611s-0.193-0.356-0.334-0.497s-0.307-0.252-0.496-0.334
			c-0.191-0.082-0.395-0.123-0.611-0.123h-0.721c-0.217,0-0.421,0.041-0.611,0.123s-0.355,0.193-0.496,0.334
			s-0.252,0.306-0.334,0.497s-0.123,0.394-0.123,0.611v4.184c0,0.217,0.041,0.421,0.123,0.611s0.193,0.355,0.334,0.496
			s0.306,0.252,0.496,0.334s0.395,0.123,0.611,0.123h0.721c0.217,0,0.42-0.041,0.611-0.123c0.189-0.082,0.355-0.193,0.496-0.334
			s0.252-0.306,0.334-0.496s0.123-0.395,0.123-0.611V267.318z"/>
		<path fill="#876957" d="M544.6,272.469c-0.139,0.322-0.327,0.604-0.567,0.844s-0.521,0.43-0.844,0.566
			c-0.322,0.138-0.665,0.207-1.028,0.207h-0.272c-0.404,0-0.779-0.082-1.125-0.246s-0.642-0.393-0.888-0.686v4.359h-1.081V264.91
			h0.36l0.589,0.914c0.246-0.334,0.555-0.599,0.927-0.795s0.778-0.294,1.218-0.294h0.272c0.363,0,0.706,0.069,1.028,0.207
			s0.604,0.327,0.844,0.567s0.429,0.521,0.567,0.844c0.137,0.322,0.206,0.665,0.206,1.028v4.061
			C544.806,271.804,544.736,272.146,544.6,272.469z M543.725,267.318c0-0.217-0.041-0.42-0.123-0.611s-0.193-0.356-0.334-0.497
			s-0.307-0.252-0.496-0.334c-0.191-0.082-0.395-0.123-0.611-0.123h-0.721c-0.217,0-0.421,0.041-0.611,0.123
			s-0.355,0.193-0.496,0.334s-0.252,0.306-0.334,0.497s-0.123,0.394-0.123,0.611v4.184c0,0.217,0.041,0.421,0.123,0.611
			s0.193,0.355,0.334,0.496s0.306,0.252,0.496,0.334s0.395,0.123,0.611,0.123h0.721c0.217,0,0.42-0.041,0.611-0.123
			c0.189-0.082,0.355-0.193,0.496-0.334s0.252-0.306,0.334-0.496s0.123-0.395,0.123-0.611V267.318z"/>
		<path fill="#876957" d="M552.719,272.469c-0.139,0.322-0.327,0.604-0.567,0.844s-0.521,0.43-0.844,0.566
			c-0.322,0.138-0.665,0.207-1.028,0.207h-0.721c-0.363,0-0.706-0.069-1.028-0.207c-0.322-0.137-0.604-0.326-0.844-0.566
			s-0.43-0.521-0.567-0.844s-0.206-0.665-0.206-1.028v-4.061c0-0.363,0.068-0.706,0.206-1.028s0.327-0.604,0.567-0.844
			s0.521-0.429,0.844-0.567s0.665-0.207,1.028-0.207h0.721c0.363,0,0.706,0.069,1.028,0.207s0.604,0.327,0.844,0.567
			s0.429,0.521,0.567,0.844c0.137,0.322,0.206,0.665,0.206,1.028v2.118h-4.931v2.004c0,0.217,0.041,0.421,0.123,0.611
			s0.193,0.355,0.334,0.496s0.306,0.252,0.496,0.334s0.395,0.123,0.611,0.123h0.721c0.217,0,0.42-0.041,0.611-0.123
			c0.189-0.082,0.355-0.193,0.496-0.334s0.252-0.306,0.334-0.496s0.123-0.395,0.123-0.611v-0.598l1.081,0.176v0.36
			C552.925,271.804,552.855,272.146,552.719,272.469z M551.844,267.318c0-0.217-0.041-0.42-0.123-0.611s-0.193-0.356-0.334-0.497
			s-0.307-0.252-0.496-0.334c-0.191-0.082-0.395-0.123-0.611-0.123h-0.721c-0.217,0-0.421,0.041-0.611,0.123
			s-0.355,0.193-0.496,0.334s-0.252,0.306-0.334,0.497s-0.123,0.394-0.123,0.611v1.336h3.85V267.318z"/>
		<path fill="#876957" d="M560.738,273.91l-0.598-0.896c-0.246,0.322-0.554,0.582-0.923,0.777c-0.369,0.196-0.773,0.295-1.213,0.295
			h-0.272c-0.363,0-0.706-0.069-1.028-0.207c-0.322-0.137-0.604-0.326-0.844-0.566s-0.43-0.521-0.567-0.844
			s-0.206-0.665-0.206-1.028v-0.088c0-0.363,0.068-0.706,0.206-1.028s0.327-0.604,0.567-0.844s0.521-0.429,0.844-0.567
			s0.665-0.207,1.028-0.207h2.285v-1.389c0-0.217-0.041-0.42-0.123-0.611s-0.193-0.356-0.334-0.497s-0.307-0.252-0.496-0.334
			c-0.191-0.082-0.395-0.123-0.611-0.123h-0.633c-0.217,0-0.421,0.041-0.611,0.123s-0.355,0.193-0.496,0.334
			s-0.252,0.306-0.334,0.497s-0.123,0.394-0.123,0.611v0.325l-1.081-0.176v-0.088c0-0.363,0.068-0.706,0.206-1.028
			s0.327-0.604,0.567-0.844s0.521-0.429,0.844-0.567s0.665-0.207,1.028-0.207h0.633c0.363,0,0.706,0.069,1.028,0.207
			s0.604,0.327,0.844,0.567s0.429,0.521,0.567,0.844c0.137,0.322,0.206,0.665,0.206,1.028v6.53H560.738z M560.018,269.551h-2.285
			c-0.217,0-0.421,0.041-0.611,0.123s-0.355,0.195-0.496,0.338s-0.252,0.311-0.334,0.501c-0.082,0.19-0.123,0.394-0.123,0.61v0.378
			c0,0.217,0.041,0.421,0.123,0.611s0.193,0.355,0.334,0.496s0.306,0.252,0.496,0.334s0.395,0.123,0.611,0.123h0.721
			c0.217,0,0.42-0.041,0.611-0.123c0.189-0.082,0.355-0.193,0.496-0.334s0.252-0.306,0.334-0.496s0.123-0.395,0.123-0.611V269.551z"
			/>
		<path fill="#876957" d="M568.191,273.91v-6.592c0-0.217-0.041-0.42-0.123-0.611s-0.193-0.356-0.334-0.497
			s-0.307-0.252-0.496-0.334c-0.191-0.082-0.395-0.123-0.611-0.123h-0.721c-0.217,0-0.421,0.041-0.611,0.123
			s-0.355,0.193-0.496,0.334s-0.252,0.306-0.334,0.497s-0.123,0.394-0.123,0.611v6.592h-1.081v-9h0.36l0.589,0.914
			c0.246-0.334,0.555-0.599,0.927-0.795s0.778-0.294,1.218-0.294h0.272c0.363,0,0.706,0.069,1.028,0.207s0.604,0.327,0.844,0.567
			s0.429,0.521,0.567,0.844c0.137,0.322,0.206,0.665,0.206,1.028v6.53H568.191z"/>
		<path fill="#876957" d="M581.696,273.91v-5.757h-4.825v5.757h-1.134v-12.604h1.134v5.766h4.825v-5.766h1.134v12.604H581.696z"/>
		<path fill="#876957" d="M591.031,272.469c-0.138,0.322-0.326,0.604-0.566,0.844s-0.521,0.43-0.844,0.566
			c-0.322,0.138-0.665,0.207-1.028,0.207h-0.721c-0.363,0-0.706-0.069-1.028-0.207c-0.322-0.137-0.604-0.326-0.844-0.566
			s-0.43-0.521-0.566-0.844c-0.139-0.322-0.207-0.665-0.207-1.028v-4.061c0-0.363,0.068-0.706,0.207-1.028
			c0.137-0.322,0.326-0.604,0.566-0.844s0.521-0.429,0.844-0.567s0.665-0.207,1.028-0.207h0.721c0.363,0,0.706,0.069,1.028,0.207
			s0.604,0.327,0.844,0.567s0.429,0.521,0.566,0.844s0.207,0.665,0.207,1.028v2.118h-4.931v2.004c0,0.217,0.041,0.421,0.123,0.611
			s0.193,0.355,0.334,0.496s0.306,0.252,0.497,0.334c0.189,0.082,0.394,0.123,0.61,0.123h0.721c0.217,0,0.42-0.041,0.61-0.123
			s0.356-0.193,0.497-0.334s0.252-0.306,0.334-0.496s0.123-0.395,0.123-0.611v-0.598l1.081,0.176v0.36
			C591.238,271.804,591.169,272.146,591.031,272.469z M590.157,267.318c0-0.217-0.041-0.42-0.123-0.611s-0.193-0.356-0.334-0.497
			s-0.307-0.252-0.497-0.334s-0.394-0.123-0.61-0.123h-0.721c-0.217,0-0.421,0.041-0.61,0.123c-0.191,0.082-0.356,0.193-0.497,0.334
			s-0.252,0.306-0.334,0.497s-0.123,0.394-0.123,0.611v1.336h3.85V267.318z"/>
		<path fill="#876957" d="M596.046,265.938c-0.217,0-0.421,0.041-0.61,0.123c-0.191,0.082-0.356,0.193-0.497,0.334
			s-0.252,0.306-0.334,0.497s-0.123,0.394-0.123,0.611v6.407H593.4v-9h0.36l0.589,0.914c0.246-0.334,0.555-0.599,0.928-0.795
			c0.371-0.196,0.777-0.294,1.217-0.294h0.633v1.204H596.046z"/>
		<path fill="#876957" d="M598.841,262.748v-1.441h1.257v1.441H598.841z M598.929,273.91v-9h1.081v9H598.929z"/>
		<path fill="#876957" d="M605.811,273.91c-0.328,0-0.637-0.062-0.928-0.185c-0.289-0.123-0.542-0.293-0.756-0.51
			s-0.384-0.469-0.51-0.756s-0.188-0.595-0.188-0.923v-5.599h-1.617v-1.028h1.617v-2.162l1.081-0.176v2.338h2.285v1.028h-2.285
			v5.651c0,0.182,0.033,0.351,0.102,0.506c0.066,0.155,0.159,0.291,0.276,0.408s0.255,0.21,0.413,0.277s0.328,0.101,0.51,0.101
			h0.984v1.028H605.811z"/>
		<path fill="#876957" d="M614.433,273.91l-0.598-0.896c-0.246,0.322-0.554,0.582-0.923,0.777c-0.369,0.196-0.773,0.295-1.213,0.295
			h-0.272c-0.363,0-0.706-0.069-1.028-0.207c-0.322-0.137-0.604-0.326-0.844-0.566s-0.43-0.521-0.566-0.844
			c-0.139-0.322-0.207-0.665-0.207-1.028v-0.088c0-0.363,0.068-0.706,0.207-1.028c0.137-0.322,0.326-0.604,0.566-0.844
			s0.521-0.429,0.844-0.567s0.665-0.207,1.028-0.207h2.285v-1.389c0-0.217-0.041-0.42-0.123-0.611s-0.193-0.356-0.334-0.497
			s-0.307-0.252-0.497-0.334s-0.394-0.123-0.61-0.123h-0.633c-0.217,0-0.421,0.041-0.61,0.123c-0.191,0.082-0.356,0.193-0.497,0.334
			s-0.252,0.306-0.334,0.497s-0.123,0.394-0.123,0.611v0.325l-1.081-0.176v-0.088c0-0.363,0.068-0.706,0.207-1.028
			c0.137-0.322,0.326-0.604,0.566-0.844s0.521-0.429,0.844-0.567s0.665-0.207,1.028-0.207h0.633c0.363,0,0.706,0.069,1.028,0.207
			s0.604,0.327,0.844,0.567s0.429,0.521,0.566,0.844s0.207,0.665,0.207,1.028v6.53H614.433z M613.712,269.551h-2.285
			c-0.217,0-0.421,0.041-0.61,0.123c-0.191,0.082-0.356,0.195-0.497,0.338s-0.252,0.311-0.334,0.501
			c-0.082,0.19-0.123,0.394-0.123,0.61v0.378c0,0.217,0.041,0.421,0.123,0.611s0.193,0.355,0.334,0.496s0.306,0.252,0.497,0.334
			c0.189,0.082,0.394,0.123,0.61,0.123h0.721c0.217,0,0.42-0.041,0.61-0.123s0.356-0.193,0.497-0.334s0.252-0.306,0.334-0.496
			s0.123-0.395,0.123-0.611V269.551z"/>
		<path fill="#876957" d="M622.848,276.046c-0.138,0.305-0.326,0.565-0.566,0.782s-0.521,0.385-0.844,0.506
			c-0.322,0.119-0.665,0.18-1.028,0.18h-0.448c-0.363,0-0.706-0.061-1.028-0.18c-0.322-0.121-0.604-0.289-0.844-0.506
			s-0.43-0.478-0.567-0.782s-0.206-0.639-0.206-1.002v-0.035c0-0.352,0.064-0.674,0.193-0.967s0.305-0.548,0.527-0.765
			c-0.281-0.17-0.505-0.4-0.673-0.689c-0.166-0.291-0.25-0.611-0.25-0.963c0-0.316,0.067-0.611,0.202-0.883
			c0.135-0.273,0.319-0.494,0.554-0.664c-0.281-0.246-0.504-0.542-0.668-0.888s-0.246-0.724-0.246-1.134v-0.677
			c0-0.363,0.068-0.706,0.207-1.028c0.137-0.322,0.326-0.604,0.566-0.844s0.521-0.429,0.844-0.567s0.665-0.207,1.028-0.207h0.448
			c0.439,0,0.845,0.098,1.217,0.294s0.682,0.461,0.928,0.795l0.589-0.914h0.36v3.146c0,0.363-0.069,0.706-0.207,1.028
			s-0.326,0.604-0.566,0.844s-0.521,0.429-0.844,0.567c-0.322,0.138-0.665,0.207-1.028,0.207h-1.564
			c-0.123,0-0.24,0.025-0.352,0.075s-0.21,0.115-0.294,0.197c-0.086,0.082-0.151,0.18-0.198,0.295
			c-0.047,0.113-0.07,0.232-0.07,0.355s0.023,0.24,0.07,0.352s0.112,0.21,0.198,0.295c0.084,0.085,0.183,0.15,0.294,0.197
			s0.229,0.07,0.352,0.07h1.477c0.363,0,0.706,0.061,1.028,0.18c0.322,0.121,0.604,0.289,0.844,0.506s0.429,0.478,0.566,0.782
			s0.207,0.639,0.207,1.002v0.035C623.055,275.407,622.985,275.741,622.848,276.046z M622.07,267.318
			c0-0.217-0.041-0.42-0.123-0.611s-0.195-0.356-0.338-0.497c-0.145-0.141-0.312-0.252-0.502-0.334s-0.394-0.123-0.61-0.123h-0.896
			c-0.217,0-0.421,0.041-0.61,0.123c-0.191,0.082-0.356,0.193-0.497,0.334s-0.252,0.306-0.334,0.497s-0.123,0.394-0.123,0.611v0.8
			c0,0.217,0.041,0.42,0.123,0.611s0.193,0.356,0.334,0.497s0.306,0.252,0.497,0.334c0.189,0.082,0.394,0.123,0.61,0.123h0.896
			c0.217,0,0.42-0.041,0.61-0.123s0.357-0.193,0.502-0.334c0.143-0.141,0.256-0.306,0.338-0.497s0.123-0.394,0.123-0.611V267.318z
			 M622.026,274.956c0-0.217-0.041-0.412-0.123-0.585s-0.193-0.317-0.334-0.435s-0.307-0.208-0.497-0.272s-0.394-0.097-0.61-0.097
			h-0.554c-0.217,0-0.421,0.032-0.611,0.097s-0.355,0.155-0.496,0.272s-0.252,0.262-0.334,0.435s-0.123,0.368-0.123,0.585v0.141
			c0,0.217,0.041,0.41,0.123,0.58s0.193,0.314,0.334,0.435s0.306,0.213,0.496,0.277s0.395,0.097,0.611,0.097h0.554
			c0.217,0,0.42-0.032,0.61-0.097s0.356-0.157,0.497-0.277s0.252-0.265,0.334-0.435s0.123-0.363,0.123-0.58V274.956z"/>
		<path fill="#876957" d="M630.934,272.469c-0.138,0.322-0.326,0.604-0.566,0.844s-0.521,0.43-0.844,0.566
			c-0.322,0.138-0.665,0.207-1.028,0.207h-0.721c-0.363,0-0.706-0.069-1.028-0.207c-0.322-0.137-0.604-0.326-0.844-0.566
			s-0.43-0.521-0.566-0.844c-0.139-0.322-0.207-0.665-0.207-1.028v-4.061c0-0.363,0.068-0.706,0.207-1.028
			c0.137-0.322,0.326-0.604,0.566-0.844s0.521-0.429,0.844-0.567s0.665-0.207,1.028-0.207h0.721c0.363,0,0.706,0.069,1.028,0.207
			s0.604,0.327,0.844,0.567s0.429,0.521,0.566,0.844s0.207,0.665,0.207,1.028v2.118h-4.931v2.004c0,0.217,0.041,0.421,0.123,0.611
			s0.193,0.355,0.334,0.496s0.306,0.252,0.497,0.334c0.189,0.082,0.394,0.123,0.61,0.123h0.721c0.217,0,0.42-0.041,0.61-0.123
			s0.356-0.193,0.497-0.334s0.252-0.306,0.334-0.496s0.123-0.395,0.123-0.611v-0.598l1.081,0.176v0.36
			C631.141,271.804,631.071,272.146,630.934,272.469z M630.06,267.318c0-0.217-0.041-0.42-0.123-0.611s-0.193-0.356-0.334-0.497
			s-0.307-0.252-0.497-0.334s-0.394-0.123-0.61-0.123h-0.721c-0.217,0-0.421,0.041-0.61,0.123c-0.191,0.082-0.356,0.193-0.497,0.334
			s-0.252,0.306-0.334,0.497s-0.123,0.394-0.123,0.611v1.336h3.85V267.318z"/>
	</g>
</g>
<g>
	<defs>
		<rect id="SVGID_7_" width="960" height="540"/>
	</defs>
	<clipPath id="SVGID_8_">
		<use xlink:href="#SVGID_7_"  overflow="visible"/>
	</clipPath>
	<g clip-path="url(#SVGID_8_)">
		<path fill="#B29888" d="M432.439,292.741l0.035,0.466l0.035-0.466l2.795-9.835h1.169l-3.709,12.604h-0.598l-3.691-12.604h1.178
			L432.439,292.741z"/>
		<path fill="#B29888" d="M438.003,284.348v-1.441h1.257v1.441H438.003z M438.091,295.51v-9h1.081v9H438.091z"/>
		<path fill="#B29888" d="M447.882,293.225c0,0.363-0.073,0.696-0.22,0.998s-0.346,0.561-0.598,0.777s-0.543,0.386-0.875,0.506
			c-0.331,0.119-0.678,0.18-1.042,0.18h-0.721c-0.363,0-0.71-0.069-1.042-0.207c-0.331-0.137-0.621-0.326-0.87-0.566
			s-0.448-0.521-0.598-0.844s-0.224-0.665-0.224-1.028v-0.36l1.081-0.176v0.598c0,0.217,0.045,0.421,0.136,0.611
			s0.212,0.355,0.365,0.496s0.328,0.252,0.527,0.334s0.407,0.123,0.624,0.123h0.721c0.217,0,0.425-0.032,0.624-0.097
			s0.376-0.156,0.532-0.276s0.278-0.266,0.369-0.436s0.136-0.363,0.136-0.58c0-0.322-0.07-0.586-0.211-0.791
			s-0.327-0.376-0.558-0.514s-0.495-0.252-0.791-0.344c-0.296-0.09-0.599-0.181-0.91-0.271s-0.614-0.195-0.91-0.313
			s-0.56-0.271-0.791-0.461s-0.417-0.43-0.558-0.717s-0.211-0.645-0.211-1.072c0-0.363,0.07-0.695,0.211-0.998
			c0.141-0.301,0.331-0.561,0.571-0.777s0.52-0.385,0.839-0.506c0.319-0.119,0.661-0.18,1.024-0.18h0.633
			c0.363,0,0.706,0.069,1.028,0.207s0.604,0.326,0.844,0.566s0.429,0.521,0.567,0.844s0.207,0.665,0.207,1.028v0.035l-1.081,0.176
			v-0.272c0-0.217-0.041-0.42-0.123-0.611c-0.082-0.189-0.193-0.355-0.334-0.496s-0.306-0.252-0.497-0.334s-0.394-0.123-0.611-0.123
			h-0.633c-0.217,0-0.42,0.032-0.611,0.097s-0.356,0.157-0.497,0.276c-0.141,0.121-0.252,0.266-0.334,0.436s-0.123,0.363-0.123,0.58
			c0,0.311,0.07,0.564,0.211,0.76c0.141,0.197,0.327,0.362,0.558,0.497s0.495,0.248,0.791,0.339s0.598,0.184,0.905,0.281
			c0.308,0.096,0.609,0.206,0.905,0.329s0.56,0.281,0.791,0.475s0.417,0.435,0.558,0.726
			C447.812,292.438,447.882,292.797,447.882,293.225z"/>
		<path fill="#B29888" d="M455.662,295.51l-0.598-0.914c-0.246,0.334-0.554,0.6-0.923,0.795c-0.369,0.196-0.773,0.295-1.213,0.295
			h-0.272c-0.363,0-0.706-0.069-1.028-0.207c-0.322-0.137-0.604-0.326-0.844-0.566s-0.429-0.521-0.567-0.844
			s-0.207-0.665-0.207-1.028v-6.53h1.081v6.592c0,0.217,0.041,0.421,0.123,0.611s0.193,0.355,0.334,0.496s0.306,0.252,0.497,0.334
			s0.394,0.123,0.611,0.123h0.721c0.217,0,0.42-0.041,0.611-0.123s0.356-0.193,0.497-0.334s0.252-0.306,0.334-0.496
			s0.123-0.395,0.123-0.611v-6.592h1.081v9H455.662z"/>
		<path fill="#B29888" d="M463.835,295.51l-0.598-0.896c-0.246,0.322-0.554,0.582-0.923,0.777c-0.369,0.196-0.773,0.295-1.213,0.295
			h-0.272c-0.363,0-0.706-0.069-1.028-0.207c-0.322-0.137-0.604-0.326-0.844-0.566s-0.429-0.521-0.567-0.844
			s-0.207-0.665-0.207-1.028v-0.088c0-0.363,0.069-0.706,0.207-1.028s0.327-0.604,0.567-0.844s0.521-0.429,0.844-0.566
			s0.665-0.207,1.028-0.207h2.285v-1.389c0-0.217-0.041-0.42-0.123-0.611c-0.082-0.189-0.193-0.355-0.334-0.496
			s-0.306-0.252-0.497-0.334s-0.394-0.123-0.611-0.123h-0.633c-0.217,0-0.42,0.041-0.611,0.123s-0.356,0.193-0.497,0.334
			s-0.252,0.307-0.334,0.496c-0.082,0.191-0.123,0.395-0.123,0.611v0.325l-1.081-0.176v-0.088c0-0.363,0.069-0.706,0.207-1.028
			s0.327-0.604,0.567-0.844s0.521-0.429,0.844-0.566s0.665-0.207,1.028-0.207h0.633c0.363,0,0.706,0.069,1.028,0.207
			s0.604,0.326,0.844,0.566s0.429,0.521,0.567,0.844s0.207,0.665,0.207,1.028v6.53H463.835z M463.115,291.15h-2.285
			c-0.217,0-0.42,0.041-0.611,0.123s-0.356,0.195-0.497,0.338c-0.141,0.145-0.252,0.312-0.334,0.502s-0.123,0.394-0.123,0.61v0.378
			c0,0.217,0.041,0.421,0.123,0.611s0.193,0.355,0.334,0.496s0.306,0.252,0.497,0.334s0.394,0.123,0.611,0.123h0.721
			c0.217,0,0.42-0.041,0.611-0.123s0.356-0.193,0.497-0.334s0.252-0.306,0.334-0.496s0.123-0.395,0.123-0.611V291.15z"/>
		<path fill="#B29888" d="M466.718,295.51v-12.604h1.081v12.604H466.718z"/>
		<path fill="#B29888" d="M479.478,292.574h-3.99l-0.826,2.936h-1.178l3.691-12.604h0.598l3.709,12.604h-1.169L479.478,292.574z
			 M475.795,291.493h3.384l-1.661-5.81l-0.035-0.466l-0.035,0.466L475.795,291.493z"/>
		<path fill="#B29888" d="M487.67,295.51v-6.592c0-0.217-0.041-0.42-0.123-0.611c-0.082-0.189-0.193-0.355-0.334-0.496
			s-0.307-0.252-0.496-0.334c-0.191-0.082-0.395-0.123-0.611-0.123h-0.721c-0.217,0-0.421,0.041-0.611,0.123
			s-0.355,0.193-0.496,0.334s-0.252,0.307-0.334,0.496c-0.082,0.191-0.123,0.395-0.123,0.611v6.592h-1.081v-9h0.36l0.589,0.914
			c0.246-0.334,0.555-0.599,0.927-0.795s0.778-0.295,1.218-0.295h0.272c0.363,0,0.706,0.069,1.028,0.207s0.604,0.326,0.844,0.566
			s0.429,0.521,0.567,0.844c0.137,0.322,0.206,0.665,0.206,1.028v6.53H487.67z"/>
		<path fill="#B29888" d="M496.564,295.51l-0.598-0.896c-0.246,0.322-0.554,0.582-0.923,0.777c-0.369,0.196-0.773,0.295-1.213,0.295
			h-0.272c-0.363,0-0.706-0.069-1.028-0.207c-0.322-0.137-0.604-0.326-0.844-0.566s-0.43-0.521-0.567-0.844
			s-0.206-0.665-0.206-1.028v-0.088c0-0.363,0.068-0.706,0.206-1.028s0.327-0.604,0.567-0.844s0.521-0.429,0.844-0.566
			s0.665-0.207,1.028-0.207h2.285v-1.389c0-0.217-0.041-0.42-0.123-0.611c-0.082-0.189-0.193-0.355-0.334-0.496
			s-0.307-0.252-0.496-0.334c-0.191-0.082-0.395-0.123-0.611-0.123h-0.633c-0.217,0-0.421,0.041-0.611,0.123
			s-0.355,0.193-0.496,0.334s-0.252,0.307-0.334,0.496c-0.082,0.191-0.123,0.395-0.123,0.611v0.325l-1.081-0.176v-0.088
			c0-0.363,0.068-0.706,0.206-1.028s0.327-0.604,0.567-0.844s0.521-0.429,0.844-0.566s0.665-0.207,1.028-0.207h0.633
			c0.363,0,0.706,0.069,1.028,0.207s0.604,0.326,0.844,0.566s0.429,0.521,0.567,0.844c0.137,0.322,0.206,0.665,0.206,1.028v6.53
			H496.564z M495.844,291.15h-2.285c-0.217,0-0.421,0.041-0.611,0.123s-0.355,0.195-0.496,0.338
			c-0.141,0.145-0.252,0.312-0.334,0.502s-0.123,0.394-0.123,0.61v0.378c0,0.217,0.041,0.421,0.123,0.611s0.193,0.355,0.334,0.496
			s0.306,0.252,0.496,0.334s0.395,0.123,0.611,0.123h0.721c0.217,0,0.42-0.041,0.611-0.123c0.189-0.082,0.355-0.193,0.496-0.334
			s0.252-0.306,0.334-0.496s0.123-0.395,0.123-0.611V291.15z"/>
		<path fill="#B29888" d="M499.447,295.51v-12.604h1.081v12.604H499.447z"/>
		<path fill="#B29888" d="M504.51,299.113h-1.046l1.6-4.377l-2.918-8.227h1.081l2.347,6.82l0.035,0.466l0.035-0.466l2.338-6.82
			h1.081L504.51,299.113z"/>
		<path fill="#B29888" d="M516.331,293.225c0,0.363-0.073,0.696-0.22,0.998s-0.346,0.561-0.598,0.777s-0.544,0.386-0.875,0.506
			c-0.331,0.119-0.678,0.18-1.041,0.18h-0.721c-0.363,0-0.711-0.069-1.041-0.207c-0.332-0.137-0.622-0.326-0.871-0.566
			s-0.447-0.521-0.598-0.844c-0.148-0.322-0.224-0.665-0.224-1.028v-0.36l1.081-0.176v0.598c0,0.217,0.045,0.421,0.137,0.611
			c0.09,0.19,0.212,0.355,0.364,0.496s0.328,0.252,0.527,0.334s0.407,0.123,0.624,0.123h0.721c0.217,0,0.425-0.032,0.624-0.097
			s0.376-0.156,0.532-0.276c0.154-0.12,0.277-0.266,0.369-0.436c0.09-0.17,0.136-0.363,0.136-0.58c0-0.322-0.07-0.586-0.211-0.791
			s-0.327-0.376-0.558-0.514c-0.232-0.138-0.496-0.252-0.791-0.344c-0.297-0.09-0.6-0.181-0.91-0.271s-0.614-0.195-0.91-0.313
			s-0.56-0.271-0.791-0.461s-0.417-0.43-0.558-0.717s-0.211-0.645-0.211-1.072c0-0.363,0.07-0.695,0.211-0.998
			c0.141-0.301,0.331-0.561,0.571-0.777s0.52-0.385,0.84-0.506c0.318-0.119,0.66-0.18,1.023-0.18h0.633
			c0.363,0,0.706,0.069,1.028,0.207s0.604,0.326,0.844,0.566s0.429,0.521,0.567,0.844c0.137,0.322,0.206,0.665,0.206,1.028v0.035
			l-1.081,0.176v-0.272c0-0.217-0.041-0.42-0.123-0.611c-0.082-0.189-0.193-0.355-0.334-0.496s-0.307-0.252-0.496-0.334
			c-0.191-0.082-0.395-0.123-0.611-0.123h-0.633c-0.217,0-0.421,0.032-0.611,0.097s-0.355,0.157-0.496,0.276
			c-0.141,0.121-0.252,0.266-0.334,0.436s-0.123,0.363-0.123,0.58c0,0.311,0.07,0.564,0.211,0.76
			c0.141,0.197,0.326,0.362,0.559,0.497c0.23,0.135,0.494,0.248,0.791,0.339c0.295,0.091,0.598,0.184,0.904,0.281
			c0.309,0.096,0.609,0.206,0.906,0.329c0.295,0.123,0.559,0.281,0.791,0.475c0.23,0.193,0.417,0.435,0.558,0.726
			C516.261,292.438,516.331,292.797,516.331,293.225z"/>
		<path fill="#B29888" d="M518.678,284.348v-1.441h1.257v1.441H518.678z M518.766,295.51v-9h1.081v9H518.766z"/>
		<path fill="#B29888" d="M528.557,293.225c0,0.363-0.073,0.696-0.22,0.998s-0.346,0.561-0.598,0.777s-0.544,0.386-0.874,0.506
			c-0.332,0.119-0.679,0.18-1.042,0.18h-0.721c-0.363,0-0.711-0.069-1.042-0.207c-0.331-0.137-0.621-0.326-0.869-0.566
			c-0.25-0.24-0.449-0.521-0.598-0.844c-0.15-0.322-0.225-0.665-0.225-1.028v-0.36l1.081-0.176v0.598
			c0,0.217,0.045,0.421,0.136,0.611s0.213,0.355,0.365,0.496s0.328,0.252,0.527,0.334s0.407,0.123,0.624,0.123h0.721
			c0.217,0,0.425-0.032,0.624-0.097s0.376-0.156,0.531-0.276s0.278-0.266,0.369-0.436s0.137-0.363,0.137-0.58
			c0-0.322-0.07-0.586-0.211-0.791s-0.327-0.376-0.559-0.514s-0.495-0.252-0.791-0.344c-0.296-0.09-0.599-0.181-0.909-0.271
			s-0.614-0.195-0.909-0.313c-0.297-0.117-0.561-0.271-0.791-0.461c-0.232-0.19-0.418-0.43-0.559-0.717s-0.211-0.645-0.211-1.072
			c0-0.363,0.07-0.695,0.211-0.998c0.141-0.301,0.331-0.561,0.571-0.777s0.52-0.385,0.839-0.506c0.319-0.119,0.661-0.18,1.024-0.18
			h0.633c0.363,0,0.706,0.069,1.028,0.207s0.604,0.326,0.844,0.566s0.429,0.521,0.566,0.844s0.207,0.665,0.207,1.028v0.035
			l-1.081,0.176v-0.272c0-0.217-0.041-0.42-0.123-0.611c-0.082-0.189-0.193-0.355-0.334-0.496s-0.307-0.252-0.497-0.334
			s-0.394-0.123-0.61-0.123h-0.633c-0.217,0-0.421,0.032-0.61,0.097c-0.191,0.064-0.356,0.157-0.497,0.276
			c-0.141,0.121-0.252,0.266-0.334,0.436s-0.123,0.363-0.123,0.58c0,0.311,0.07,0.564,0.211,0.76
			c0.141,0.197,0.326,0.362,0.558,0.497s0.495,0.248,0.791,0.339s0.598,0.184,0.906,0.281c0.307,0.096,0.608,0.206,0.904,0.329
			s0.56,0.281,0.791,0.475s0.418,0.435,0.559,0.726C528.486,292.438,528.557,292.797,528.557,293.225z"/>
		<path fill="#B29888" d="M531.264,298.032h-0.457v-3.876h1.354L531.264,298.032z"/>
		<path fill="#B29888" d="M545.664,293.796c-0.161,0.375-0.382,0.703-0.663,0.984s-0.609,0.503-0.984,0.663
			c-0.375,0.161-0.776,0.242-1.204,0.242h-0.896c-0.428,0-0.83-0.081-1.209-0.242c-0.377-0.16-0.707-0.382-0.988-0.663
			s-0.503-0.609-0.664-0.984s-0.241-0.776-0.241-1.204v-6.768c0-0.428,0.08-0.829,0.241-1.204s0.383-0.703,0.664-0.984
			s0.611-0.502,0.988-0.663c0.379-0.161,0.781-0.242,1.209-0.242h0.896c0.428,0,0.829,0.081,1.204,0.242s0.703,0.382,0.984,0.663
			s0.502,0.609,0.663,0.984s0.242,0.776,0.242,1.204v0.51l-1.134,0.176v-0.686c0-0.281-0.053-0.543-0.158-0.787
			c-0.105-0.242-0.249-0.455-0.431-0.637s-0.395-0.325-0.637-0.431c-0.244-0.105-0.506-0.158-0.787-0.158h-0.791
			c-0.281,0-0.544,0.053-0.787,0.158s-0.457,0.249-0.641,0.431c-0.186,0.182-0.33,0.395-0.436,0.637
			c-0.105,0.244-0.158,0.506-0.158,0.787v6.768c0,0.281,0.053,0.544,0.158,0.787s0.25,0.457,0.436,0.641
			c0.184,0.186,0.397,0.33,0.641,0.436s0.506,0.158,0.787,0.158h0.791c0.281,0,0.543-0.053,0.787-0.158
			c0.242-0.105,0.455-0.25,0.637-0.436c0.182-0.184,0.325-0.397,0.431-0.641s0.158-0.506,0.158-0.787v-0.686l1.134,0.185v0.501
			C545.906,293.02,545.825,293.421,545.664,293.796z"/>
		<path fill="#B29888" d="M553.72,295.51l-0.598-0.914c-0.246,0.334-0.554,0.6-0.923,0.795c-0.369,0.196-0.773,0.295-1.213,0.295
			h-0.272c-0.363,0-0.706-0.069-1.028-0.207c-0.322-0.137-0.604-0.326-0.844-0.566s-0.43-0.521-0.566-0.844
			c-0.139-0.322-0.207-0.665-0.207-1.028v-6.53h1.081v6.592c0,0.217,0.041,0.421,0.123,0.611s0.193,0.355,0.334,0.496
			s0.306,0.252,0.497,0.334c0.189,0.082,0.394,0.123,0.61,0.123h0.721c0.217,0,0.42-0.041,0.61-0.123s0.356-0.193,0.497-0.334
			s0.252-0.306,0.334-0.496s0.123-0.395,0.123-0.611v-6.592h1.081v9H553.72z"/>
		<path fill="#B29888" d="M558.888,287.538c-0.217,0-0.421,0.041-0.61,0.123c-0.191,0.082-0.356,0.193-0.497,0.334
			s-0.252,0.307-0.334,0.497s-0.123,0.394-0.123,0.61v6.407h-1.081v-9h0.36l0.589,0.914c0.246-0.334,0.555-0.599,0.928-0.795
			c0.371-0.196,0.777-0.295,1.217-0.295h0.633v1.204H558.888z"/>
		<path fill="#B29888" d="M567.062,295.51l-0.598-0.896c-0.246,0.322-0.554,0.582-0.923,0.777c-0.369,0.196-0.773,0.295-1.213,0.295
			h-0.272c-0.363,0-0.706-0.069-1.028-0.207c-0.322-0.137-0.604-0.326-0.844-0.566s-0.43-0.521-0.566-0.844
			c-0.139-0.322-0.207-0.665-0.207-1.028v-0.088c0-0.363,0.068-0.706,0.207-1.028c0.137-0.322,0.326-0.604,0.566-0.844
			s0.521-0.429,0.844-0.566s0.665-0.207,1.028-0.207h2.285v-1.389c0-0.217-0.041-0.42-0.123-0.611
			c-0.082-0.189-0.193-0.355-0.334-0.496s-0.307-0.252-0.497-0.334s-0.394-0.123-0.61-0.123h-0.633c-0.217,0-0.421,0.041-0.61,0.123
			c-0.191,0.082-0.356,0.193-0.497,0.334s-0.252,0.307-0.334,0.496c-0.082,0.191-0.123,0.395-0.123,0.611v0.325l-1.081-0.176v-0.088
			c0-0.363,0.068-0.706,0.207-1.028c0.137-0.322,0.326-0.604,0.566-0.844s0.521-0.429,0.844-0.566s0.665-0.207,1.028-0.207h0.633
			c0.363,0,0.706,0.069,1.028,0.207s0.604,0.326,0.844,0.566s0.429,0.521,0.566,0.844s0.207,0.665,0.207,1.028v6.53H567.062z
			 M566.341,291.15h-2.285c-0.217,0-0.421,0.041-0.61,0.123c-0.191,0.082-0.356,0.195-0.497,0.338
			c-0.141,0.145-0.252,0.312-0.334,0.502s-0.123,0.394-0.123,0.61v0.378c0,0.217,0.041,0.421,0.123,0.611s0.193,0.355,0.334,0.496
			s0.306,0.252,0.497,0.334c0.189,0.082,0.394,0.123,0.61,0.123h0.721c0.217,0,0.42-0.041,0.61-0.123s0.356-0.193,0.497-0.334
			s0.252-0.306,0.334-0.496s0.123-0.395,0.123-0.611V291.15z"/>
		<path fill="#B29888" d="M572.862,295.51c-0.328,0-0.638-0.062-0.927-0.185c-0.291-0.123-0.543-0.293-0.756-0.51
			c-0.215-0.217-0.385-0.469-0.51-0.756c-0.127-0.287-0.189-0.595-0.189-0.923v-5.599h-1.617v-1.028h1.617v-2.162l1.081-0.176v2.338
			h2.285v1.028h-2.285v5.651c0,0.182,0.033,0.351,0.101,0.506s0.16,0.291,0.277,0.408s0.255,0.21,0.413,0.277
			s0.328,0.101,0.51,0.101h0.984v1.028H572.862z"/>
		<path fill="#B29888" d="M576.105,284.348v-1.441h1.257v1.441H576.105z M576.193,295.51v-9h1.081v9H576.193z"/>
		<path fill="#B29888" d="M585.602,294.068c-0.138,0.322-0.326,0.604-0.566,0.844s-0.521,0.43-0.844,0.566
			c-0.322,0.138-0.665,0.207-1.028,0.207h-0.721c-0.363,0-0.706-0.069-1.028-0.207c-0.322-0.137-0.604-0.326-0.844-0.566
			s-0.43-0.521-0.566-0.844c-0.139-0.322-0.207-0.665-0.207-1.028v-4.061c0-0.363,0.068-0.706,0.207-1.028
			c0.137-0.322,0.326-0.604,0.566-0.844s0.521-0.429,0.844-0.566s0.665-0.207,1.028-0.207h0.721c0.363,0,0.706,0.069,1.028,0.207
			s0.604,0.326,0.844,0.566s0.429,0.521,0.566,0.844s0.207,0.665,0.207,1.028v4.061
			C585.809,293.403,585.739,293.746,585.602,294.068z M584.728,288.918c0-0.217-0.041-0.42-0.123-0.611
			c-0.082-0.189-0.193-0.355-0.334-0.496s-0.307-0.252-0.497-0.334s-0.394-0.123-0.61-0.123h-0.721c-0.217,0-0.421,0.041-0.61,0.123
			c-0.191,0.082-0.356,0.193-0.497,0.334s-0.252,0.307-0.334,0.496c-0.082,0.191-0.123,0.395-0.123,0.611v4.184
			c0,0.217,0.041,0.421,0.123,0.611s0.193,0.355,0.334,0.496s0.306,0.252,0.497,0.334c0.189,0.082,0.394,0.123,0.61,0.123h0.721
			c0.217,0,0.42-0.041,0.61-0.123s0.356-0.193,0.497-0.334s0.252-0.306,0.334-0.496s0.123-0.395,0.123-0.611V288.918z"/>
		<path fill="#B29888" d="M592.901,295.51v-6.592c0-0.217-0.041-0.42-0.123-0.611c-0.082-0.189-0.193-0.355-0.334-0.496
			s-0.307-0.252-0.497-0.334s-0.394-0.123-0.61-0.123h-0.721c-0.217,0-0.421,0.041-0.61,0.123c-0.191,0.082-0.356,0.193-0.497,0.334
			s-0.252,0.307-0.334,0.496c-0.082,0.191-0.123,0.395-0.123,0.611v6.592h-1.081v-9h0.36l0.589,0.914
			c0.246-0.334,0.555-0.599,0.928-0.795c0.371-0.196,0.777-0.295,1.217-0.295h0.272c0.363,0,0.706,0.069,1.028,0.207
			s0.604,0.326,0.844,0.566s0.429,0.521,0.566,0.844s0.207,0.665,0.207,1.028v6.53H592.901z"/>
		<path fill="#B29888" d="M608.584,295.686c-0.51,0-0.953-0.108-1.332-0.325c-0.377-0.217-0.678-0.51-0.9-0.879
			c-0.293,0.369-0.653,0.662-1.081,0.879s-0.891,0.325-1.389,0.325h-0.536c-0.428,0-0.83-0.081-1.209-0.242
			c-0.377-0.16-0.707-0.382-0.988-0.663s-0.503-0.609-0.664-0.984s-0.241-0.776-0.241-1.204v-0.686c0-0.299,0.04-0.584,0.118-0.857
			c0.08-0.271,0.192-0.525,0.339-0.76s0.319-0.446,0.519-0.637s0.422-0.351,0.668-0.479c-0.246-0.129-0.469-0.288-0.668-0.479
			c-0.199-0.189-0.372-0.402-0.519-0.637s-0.259-0.488-0.339-0.76c-0.078-0.273-0.118-0.559-0.118-0.857v-0.615
			c0-0.428,0.08-0.829,0.241-1.204s0.383-0.703,0.664-0.984s0.611-0.502,0.988-0.663c0.379-0.161,0.781-0.242,1.209-0.242h0.536
			c0.428,0,0.829,0.081,1.204,0.242s0.703,0.382,0.984,0.663s0.502,0.609,0.664,0.984c0.16,0.375,0.241,0.776,0.241,1.204v0.088
			l-1.134,0.185v-0.272c0-0.281-0.053-0.543-0.158-0.787c-0.105-0.242-0.249-0.455-0.431-0.637s-0.395-0.325-0.638-0.431
			s-0.505-0.158-0.786-0.158h-0.431c-0.281,0-0.544,0.053-0.787,0.158s-0.457,0.249-0.641,0.431
			c-0.186,0.182-0.33,0.395-0.436,0.637c-0.105,0.244-0.158,0.506-0.158,0.787v0.791c0,0.281,0.053,0.544,0.158,0.787
			s0.25,0.457,0.436,0.641c0.184,0.186,0.397,0.33,0.641,0.436s0.506,0.158,0.787,0.158h2.443v-1.151l1.134-0.185v1.318h1.749v1.072
			h-1.749v3.032c0.012,0.264,0.053,0.51,0.123,0.738s0.174,0.43,0.312,0.603s0.31,0.307,0.515,0.404
			c0.205,0.096,0.442,0.145,0.712,0.145h0.264l-0.158,1.072H608.584z M604.594,294.464c0.24-0.1,0.449-0.237,0.629-0.413
			c0.178-0.176,0.323-0.381,0.435-0.615s0.173-0.486,0.185-0.756v-2.962h-2.443c-0.281,0-0.544,0.053-0.787,0.158
			s-0.457,0.249-0.641,0.431c-0.186,0.182-0.33,0.395-0.436,0.637c-0.105,0.244-0.158,0.506-0.158,0.787v0.861
			c0,0.281,0.053,0.544,0.158,0.787s0.25,0.457,0.436,0.641c0.184,0.186,0.397,0.33,0.641,0.436s0.506,0.158,0.787,0.158h0.431
			C604.099,294.613,604.354,294.563,604.594,294.464z"/>
		<path fill="#B29888" d="M622.359,293.796c-0.161,0.375-0.382,0.703-0.663,0.984s-0.609,0.503-0.984,0.663
			c-0.375,0.161-0.776,0.242-1.204,0.242h-0.896c-0.428,0-0.83-0.081-1.209-0.242c-0.377-0.16-0.707-0.382-0.988-0.663
			s-0.503-0.609-0.664-0.984s-0.241-0.776-0.241-1.204v-6.768c0-0.428,0.08-0.829,0.241-1.204s0.383-0.703,0.664-0.984
			s0.611-0.502,0.988-0.663c0.379-0.161,0.781-0.242,1.209-0.242h0.896c0.428,0,0.829,0.081,1.204,0.242s0.703,0.382,0.984,0.663
			s0.502,0.609,0.663,0.984s0.242,0.776,0.242,1.204v0.51l-1.134,0.176v-0.686c0-0.281-0.053-0.543-0.158-0.787
			c-0.105-0.242-0.249-0.455-0.431-0.637s-0.395-0.325-0.637-0.431c-0.244-0.105-0.506-0.158-0.787-0.158h-0.791
			c-0.281,0-0.544,0.053-0.787,0.158s-0.457,0.249-0.641,0.431c-0.186,0.182-0.33,0.395-0.436,0.637
			c-0.105,0.244-0.158,0.506-0.158,0.787v6.768c0,0.281,0.053,0.544,0.158,0.787s0.25,0.457,0.436,0.641
			c0.184,0.186,0.397,0.33,0.641,0.436s0.506,0.158,0.787,0.158h0.791c0.281,0,0.543-0.053,0.787-0.158
			c0.242-0.105,0.455-0.25,0.637-0.436c0.182-0.184,0.325-0.397,0.431-0.641s0.158-0.506,0.158-0.787v-0.686l1.134,0.185v0.501
			C622.602,293.02,622.521,293.421,622.359,293.796z"/>
		<path fill="#B29888" d="M630.568,294.068c-0.138,0.322-0.326,0.604-0.566,0.844s-0.521,0.43-0.844,0.566
			c-0.322,0.138-0.665,0.207-1.028,0.207h-0.721c-0.363,0-0.706-0.069-1.028-0.207c-0.322-0.137-0.604-0.326-0.844-0.566
			s-0.43-0.521-0.566-0.844c-0.139-0.322-0.207-0.665-0.207-1.028v-4.061c0-0.363,0.068-0.706,0.207-1.028
			c0.137-0.322,0.326-0.604,0.566-0.844s0.521-0.429,0.844-0.566s0.665-0.207,1.028-0.207h0.721c0.363,0,0.706,0.069,1.028,0.207
			s0.604,0.326,0.844,0.566s0.429,0.521,0.566,0.844s0.207,0.665,0.207,1.028v4.061
			C630.775,293.403,630.706,293.746,630.568,294.068z M629.694,288.918c0-0.217-0.041-0.42-0.123-0.611
			c-0.082-0.189-0.193-0.355-0.334-0.496s-0.307-0.252-0.497-0.334s-0.394-0.123-0.61-0.123h-0.721c-0.217,0-0.421,0.041-0.61,0.123
			c-0.191,0.082-0.356,0.193-0.497,0.334s-0.252,0.307-0.334,0.496c-0.082,0.191-0.123,0.395-0.123,0.611v4.184
			c0,0.217,0.041,0.421,0.123,0.611s0.193,0.355,0.334,0.496s0.306,0.252,0.497,0.334c0.189,0.082,0.394,0.123,0.61,0.123h0.721
			c0.217,0,0.42-0.041,0.61-0.123s0.356-0.193,0.497-0.334s0.252-0.306,0.334-0.496s0.123-0.395,0.123-0.611V288.918z"/>
		<path fill="#B29888" d="M642.438,295.51v-6.592c0-0.217-0.041-0.42-0.123-0.611c-0.082-0.189-0.193-0.355-0.334-0.496
			s-0.307-0.252-0.497-0.334s-0.394-0.123-0.61-0.123h-0.536c-0.217,0-0.421,0.041-0.611,0.123s-0.357,0.193-0.5,0.334
			c-0.145,0.141-0.257,0.307-0.339,0.496c-0.082,0.191-0.123,0.395-0.123,0.611v6.592h-1.072v-6.592c0-0.217-0.041-0.42-0.123-0.611
			c-0.082-0.189-0.195-0.355-0.339-0.496s-0.311-0.252-0.5-0.334c-0.191-0.082-0.395-0.123-0.611-0.123h-0.536
			c-0.217,0-0.421,0.041-0.61,0.123c-0.191,0.082-0.356,0.193-0.497,0.334s-0.252,0.307-0.334,0.496
			c-0.082,0.191-0.123,0.395-0.123,0.611v6.592h-1.081v-9h0.36l0.589,0.914c0.246-0.334,0.555-0.599,0.928-0.795
			c0.371-0.196,0.777-0.295,1.217-0.295h0.088c0.51,0,0.97,0.126,1.38,0.378s0.727,0.586,0.949,1.002
			c0.111-0.205,0.249-0.393,0.413-0.563s0.346-0.314,0.545-0.435s0.416-0.214,0.65-0.281s0.478-0.102,0.729-0.102h0.088
			c0.363,0,0.706,0.069,1.028,0.207s0.604,0.326,0.844,0.566s0.429,0.521,0.566,0.844s0.207,0.665,0.207,1.028v6.53H642.438z"/>
		<path fill="#B29888" d="M655.183,295.51v-6.592c0-0.217-0.041-0.42-0.123-0.611c-0.082-0.189-0.193-0.355-0.334-0.496
			s-0.307-0.252-0.497-0.334s-0.394-0.123-0.61-0.123h-0.536c-0.217,0-0.421,0.041-0.611,0.123s-0.357,0.193-0.5,0.334
			c-0.145,0.141-0.257,0.307-0.339,0.496c-0.082,0.191-0.123,0.395-0.123,0.611v6.592h-1.072v-6.592c0-0.217-0.041-0.42-0.123-0.611
			c-0.082-0.189-0.195-0.355-0.339-0.496s-0.311-0.252-0.5-0.334c-0.191-0.082-0.395-0.123-0.611-0.123h-0.536
			c-0.217,0-0.421,0.041-0.61,0.123c-0.191,0.082-0.356,0.193-0.497,0.334s-0.252,0.307-0.334,0.496
			c-0.082,0.191-0.123,0.395-0.123,0.611v6.592h-1.081v-9h0.36l0.589,0.914c0.246-0.334,0.555-0.599,0.928-0.795
			c0.371-0.196,0.777-0.295,1.217-0.295h0.088c0.51,0,0.97,0.126,1.38,0.378s0.727,0.586,0.949,1.002
			c0.111-0.205,0.249-0.393,0.413-0.563s0.346-0.314,0.545-0.435s0.416-0.214,0.65-0.281s0.478-0.102,0.729-0.102h0.088
			c0.363,0,0.706,0.069,1.028,0.207s0.604,0.326,0.844,0.566s0.429,0.521,0.566,0.844s0.207,0.665,0.207,1.028v6.53H655.183z"/>
		<path fill="#B29888" d="M664.077,295.51l-0.598-0.914c-0.246,0.334-0.554,0.6-0.923,0.795c-0.369,0.196-0.773,0.295-1.213,0.295
			h-0.272c-0.363,0-0.706-0.069-1.028-0.207c-0.322-0.137-0.604-0.326-0.844-0.566s-0.43-0.521-0.566-0.844
			c-0.139-0.322-0.207-0.665-0.207-1.028v-6.53h1.081v6.592c0,0.217,0.041,0.421,0.123,0.611s0.193,0.355,0.334,0.496
			s0.306,0.252,0.497,0.334c0.189,0.082,0.394,0.123,0.61,0.123h0.721c0.217,0,0.42-0.041,0.61-0.123s0.356-0.193,0.497-0.334
			s0.252-0.306,0.334-0.496s0.123-0.395,0.123-0.611v-6.592h1.081v9H664.077z"/>
		<path fill="#B29888" d="M671.53,295.51v-6.592c0-0.217-0.041-0.42-0.123-0.611c-0.082-0.189-0.193-0.355-0.334-0.496
			s-0.307-0.252-0.497-0.334s-0.394-0.123-0.61-0.123h-0.721c-0.217,0-0.421,0.041-0.61,0.123c-0.191,0.082-0.356,0.193-0.497,0.334
			s-0.252,0.307-0.334,0.496c-0.082,0.191-0.123,0.395-0.123,0.611v6.592H666.6v-9h0.36l0.589,0.914
			c0.246-0.334,0.555-0.599,0.928-0.795c0.371-0.196,0.777-0.295,1.217-0.295h0.272c0.363,0,0.706,0.069,1.028,0.207
			s0.604,0.326,0.844,0.566s0.429,0.521,0.566,0.844s0.207,0.665,0.207,1.028v6.53H671.53z"/>
		<path fill="#B29888" d="M675.046,284.348v-1.441h1.257v1.441H675.046z M675.134,295.51v-9h1.081v9H675.134z"/>
		<path fill="#B29888" d="M684.543,294.068c-0.139,0.322-0.327,0.604-0.567,0.844s-0.521,0.43-0.844,0.566
			c-0.322,0.138-0.665,0.207-1.028,0.207h-0.721c-0.363,0-0.706-0.069-1.028-0.207c-0.322-0.137-0.604-0.326-0.844-0.566
			s-0.43-0.521-0.567-0.844s-0.206-0.665-0.206-1.028v-4.061c0-0.363,0.068-0.706,0.206-1.028s0.327-0.604,0.567-0.844
			s0.521-0.429,0.844-0.566s0.665-0.207,1.028-0.207h0.721c0.363,0,0.706,0.069,1.028,0.207s0.604,0.326,0.844,0.566
			s0.429,0.521,0.567,0.844c0.137,0.322,0.206,0.665,0.206,1.028v0.36l-1.081,0.176v-0.598c0-0.217-0.041-0.42-0.123-0.611
			c-0.082-0.189-0.193-0.355-0.334-0.496s-0.307-0.252-0.496-0.334c-0.191-0.082-0.395-0.123-0.611-0.123h-0.721
			c-0.217,0-0.421,0.041-0.611,0.123s-0.355,0.193-0.496,0.334s-0.252,0.307-0.334,0.496c-0.082,0.191-0.123,0.395-0.123,0.611
			v4.184c0,0.217,0.041,0.421,0.123,0.611s0.193,0.355,0.334,0.496s0.306,0.252,0.496,0.334s0.395,0.123,0.611,0.123h0.721
			c0.217,0,0.42-0.041,0.611-0.123c0.189-0.082,0.355-0.193,0.496-0.334s0.252-0.306,0.334-0.496s0.123-0.395,0.123-0.611v-0.598
			l1.081,0.176v0.36C684.749,293.403,684.68,293.746,684.543,294.068z"/>
		<path fill="#B29888" d="M692.563,295.51l-0.598-0.896c-0.246,0.322-0.554,0.582-0.923,0.777c-0.369,0.196-0.773,0.295-1.213,0.295
			h-0.272c-0.363,0-0.706-0.069-1.028-0.207c-0.322-0.137-0.604-0.326-0.844-0.566s-0.43-0.521-0.567-0.844
			s-0.206-0.665-0.206-1.028v-0.088c0-0.363,0.068-0.706,0.206-1.028s0.327-0.604,0.567-0.844s0.521-0.429,0.844-0.566
			s0.665-0.207,1.028-0.207h2.285v-1.389c0-0.217-0.041-0.42-0.123-0.611c-0.082-0.189-0.193-0.355-0.334-0.496
			s-0.307-0.252-0.496-0.334c-0.191-0.082-0.395-0.123-0.611-0.123h-0.633c-0.217,0-0.421,0.041-0.611,0.123
			s-0.355,0.193-0.496,0.334s-0.252,0.307-0.334,0.496c-0.082,0.191-0.123,0.395-0.123,0.611v0.325l-1.081-0.176v-0.088
			c0-0.363,0.068-0.706,0.206-1.028s0.327-0.604,0.567-0.844s0.521-0.429,0.844-0.566s0.665-0.207,1.028-0.207h0.633
			c0.363,0,0.706,0.069,1.028,0.207s0.604,0.326,0.844,0.566s0.429,0.521,0.567,0.844c0.137,0.322,0.206,0.665,0.206,1.028v6.53
			H692.563z M691.842,291.15h-2.285c-0.217,0-0.421,0.041-0.611,0.123s-0.355,0.195-0.496,0.338
			c-0.141,0.145-0.252,0.312-0.334,0.502s-0.123,0.394-0.123,0.61v0.378c0,0.217,0.041,0.421,0.123,0.611s0.193,0.355,0.334,0.496
			s0.306,0.252,0.496,0.334s0.395,0.123,0.611,0.123h0.721c0.217,0,0.42-0.041,0.611-0.123c0.189-0.082,0.355-0.193,0.496-0.334
			s0.252-0.306,0.334-0.496s0.123-0.395,0.123-0.611V291.15z"/>
		<path fill="#B29888" d="M698.31,295.51c-0.328,0-0.638-0.062-0.927-0.185c-0.291-0.123-0.543-0.293-0.756-0.51
			c-0.215-0.217-0.385-0.469-0.51-0.756c-0.127-0.287-0.189-0.595-0.189-0.923v-5.599h-1.617v-1.028h1.617v-2.162l1.081-0.176v2.338
			h2.285v1.028h-2.285v5.651c0,0.182,0.033,0.351,0.101,0.506s0.16,0.291,0.277,0.408s0.255,0.21,0.413,0.277
			s0.328,0.101,0.51,0.101h0.984v1.028H698.31z"/>
		<path fill="#B29888" d="M701.553,284.348v-1.441h1.257v1.441H701.553z M701.641,295.51v-9h1.081v9H701.641z"/>
		<path fill="#B29888" d="M711.049,294.068c-0.138,0.322-0.326,0.604-0.566,0.844s-0.521,0.43-0.844,0.566
			c-0.322,0.138-0.665,0.207-1.028,0.207h-0.721c-0.363,0-0.706-0.069-1.028-0.207c-0.322-0.137-0.604-0.326-0.844-0.566
			s-0.43-0.521-0.566-0.844c-0.139-0.322-0.207-0.665-0.207-1.028v-4.061c0-0.363,0.068-0.706,0.207-1.028
			c0.137-0.322,0.326-0.604,0.566-0.844s0.521-0.429,0.844-0.566s0.665-0.207,1.028-0.207h0.721c0.363,0,0.706,0.069,1.028,0.207
			s0.604,0.326,0.844,0.566s0.429,0.521,0.566,0.844s0.207,0.665,0.207,1.028v4.061
			C711.256,293.403,711.187,293.746,711.049,294.068z M710.175,288.918c0-0.217-0.041-0.42-0.123-0.611
			c-0.082-0.189-0.193-0.355-0.334-0.496s-0.307-0.252-0.497-0.334s-0.394-0.123-0.61-0.123h-0.721c-0.217,0-0.421,0.041-0.61,0.123
			c-0.191,0.082-0.356,0.193-0.497,0.334s-0.252,0.307-0.334,0.496c-0.082,0.191-0.123,0.395-0.123,0.611v4.184
			c0,0.217,0.041,0.421,0.123,0.611s0.193,0.355,0.334,0.496s0.306,0.252,0.497,0.334c0.189,0.082,0.394,0.123,0.61,0.123h0.721
			c0.217,0,0.42-0.041,0.61-0.123s0.356-0.193,0.497-0.334s0.252-0.306,0.334-0.496s0.123-0.395,0.123-0.611V288.918z"/>
		<path fill="#B29888" d="M718.349,295.51v-6.592c0-0.217-0.041-0.42-0.123-0.611c-0.082-0.189-0.193-0.355-0.334-0.496
			s-0.307-0.252-0.497-0.334s-0.394-0.123-0.61-0.123h-0.721c-0.217,0-0.421,0.041-0.61,0.123c-0.191,0.082-0.356,0.193-0.497,0.334
			s-0.252,0.307-0.334,0.496c-0.082,0.191-0.123,0.395-0.123,0.611v6.592h-1.081v-9h0.36l0.589,0.914
			c0.246-0.334,0.555-0.599,0.928-0.795c0.371-0.196,0.777-0.295,1.217-0.295h0.272c0.363,0,0.706,0.069,1.028,0.207
			s0.604,0.326,0.844,0.566s0.429,0.521,0.566,0.844s0.207,0.665,0.207,1.028v6.53H718.349z"/>
	</g>
</g>
</svg>
