<svg xml:space="preserve" xmlns:xlink="http://www.w3.org/1999/xlink" xmlns="http://www.w3.org/2000/svg" viewBox="0 0 156 105"><defs><path id="a" d="M-362.5-202.5h960v540h-960z"/></defs><clipPath id="b"><use xlink:href="#a" overflow="visible"/></clipPath><g clip-path="url(#b)"><path d="M26.19 48.304c-.672 0-1.26-.259-1.764-.777s-.756-1.12-.756-1.806.252-1.267.756-1.743c.504-.476 1.092-.714 1.764-.714s1.26.238 1.764.714c.504.477.756 1.057.756 1.743s-.252 1.288-.756 1.806-1.092.777-1.764.777zm-1.848 22.344V50.446c1.875 0 2.968.105 3.276.315.308.21.462.945.462 2.205v20.202c-1.876 0-2.968-.104-3.276-.315-.308-.21-.462-.945-.462-2.205zm19.026-8.862.042-3.696c0-1.12-.028-1.959-.084-2.52-.112-1.176-.77-1.792-1.974-1.848l-3.864 1.134.378 1.176V73c-1.876 0-2.968-.105-3.276-.315-.309-.21-.462-.944-.462-2.204V50.446c1.624 0 2.646.042 3.066.126s.644.336.672.756l3.108-1.176c1.708 0 2.828.112 3.36.336.531.225.938.42 1.218.588.28.168.532.511.756 1.029.224.519.378.994.462 1.428s.168 1.127.252 2.079c.084 1.373.126 3.444.126 6.216V73c-1.876 0-2.976-.105-3.297-.315-.322-.21-.483-.944-.483-2.204v-8.695zm17.009-11.34c0 1.596-.147 2.583-.441 2.961-.294.378-1.155.567-2.583.567h-1.218l.378 1.05v8.316c0 2.38.091 4.011.273 4.894.182.882.567 1.379 1.155 1.49h3.192V73l-3.402.21c-1.4 0-2.325-.141-2.772-.42a14.983 14.983 0 0 1-1.008-.672c-.225-.168-.42-.511-.588-1.029a23.554 23.554 0 0 1-.378-1.26c-.084-.321-.147-.909-.189-1.764a44.651 44.651 0 0 1-.063-2.122v-10.92l.336-1.05h-2.226v-3.528h2.226l-.336-1.554V46.75c1.875 0 2.975.091 3.297.273.322.183.483.847.483 1.995l-.336 1.428h4.2zm12.264 5.208.042-1.134c0-.392-.042-.602-.126-.63a.913.913 0 0 1-.294-.189c-.112-.098-.259-.119-.441-.063s-.399.07-.651.042l-2.268.294c-.588.084-1.092.126-1.512.126s-.742-.098-.966-.294c-.224-.196-.448-1.092-.672-2.688l4.872-.966c1.988 0 3.234.147 3.738.441.504.294.868.54 1.092.735.224.196.378.588.462 1.176.14.729.21 1.876.21 3.444V73c-1.624 0-2.646-.084-3.066-.252s-.645-.573-.672-1.218l-3.486 1.764c-.784 0-1.365-.007-1.743-.021-.378-.015-.756-.134-1.134-.357s-.63-.447-.756-.672c-.126-.224-.246-.699-.357-1.428-.141-.868-.21-2.646-.21-5.334v-2.898c0-3.164 2.757-4.802 8.274-4.914l-.336-1.008v-1.008zm-3.99 14.07c.028 0 1.442-.531 4.242-1.596l-.42-1.218v-4.998l.336-.966c-1.148.028-2.157.141-3.024.336-.868.196-1.302.462-1.302.798l-.042 5.544c0 1.4.07 2.1.21 2.1zm24.444-18.816c.14.168.21.322.21.462s-.015.238-.042.294c-.028.225-.126.729-.294 1.512L88.937 73h-4.662l-4.62-22.554c1.232 0 2.1.063 2.604.189s.847.33 1.029.609c.182.28.357.813.525 1.596l2.814 15.162h.126l3.108-17.556c1.904 0 2.982.154 3.234.462zm6.719-2.604c-.672 0-1.26-.259-1.764-.777s-.756-1.12-.756-1.806.252-1.267.756-1.743c.504-.476 1.092-.714 1.764-.714s1.26.238 1.764.714c.504.477.756 1.057.756 1.743s-.252 1.288-.756 1.806-1.092.777-1.764.777zm-1.848 22.344V50.446c1.875 0 2.968.105 3.276.315.308.21.462.945.462 2.205v20.202c-1.876 0-2.968-.104-3.276-.315-.308-.21-.462-.945-.462-2.205zm17.263-14.994.042-1.134c0-.392-.042-.602-.126-.63a.913.913 0 0 1-.294-.189c-.112-.098-.259-.119-.441-.063s-.399.07-.651.042l-2.268.294c-.588.084-1.092.126-1.512.126s-.742-.098-.966-.294c-.224-.196-.448-1.092-.672-2.688l4.872-.966c1.988 0 3.234.147 3.738.441.504.294.868.54 1.092.735.225.196.378.588.462 1.176.141.729.211 1.876.211 3.444V73c-1.625 0-2.646-.084-3.066-.252s-.645-.573-.672-1.218l-3.486 1.764c-.784 0-1.365-.007-1.743-.021-.378-.015-.756-.134-1.134-.357s-.63-.447-.756-.672c-.126-.224-.246-.699-.357-1.428-.141-.868-.21-2.646-.21-5.334v-2.898c0-3.164 2.757-4.802 8.274-4.914l-.336-1.008v-1.008zm-3.991 14.07c.028 0 1.442-.531 4.242-1.596l-.42-1.218v-4.998l.336-.966c-1.148.028-2.157.141-3.024.336-.868.196-1.302.462-1.302.798l-.042 5.544c0 1.4.07 2.1.21 2.1z"/></g><path fill="none" stroke="#00B050" stroke-width="2.28" stroke-miterlimit="10" d="M7.76 98.52c0-7.82 13.27-14.16 29.64-14.16s29.64 6.34 29.64 14.16M7.76 41.76c0-7.75 13.27-14.04 29.64-14.04s29.64 6.29 29.64 14.04m0 37.56v19.14M7.76 41.76v56.71m59.28-56.71v5.07"/><path fill-rule="evenodd" clip-rule="evenodd" fill="#FFF" d="M83.48 20.04h18.48V31.8H83.48z"/><path fill="none" stroke="#92D050" stroke-width="2.28" stroke-miterlimit="10" d="M83.48 20.04h18.48V31.8H83.48z"/><path fill-rule="evenodd" clip-rule="evenodd" fill="#FFF" d="M117.92 7.2h18.36v11.76h-18.36z"/><path fill="none" stroke="#92D050" stroke-width="2.28" stroke-miterlimit="10" d="M117.92 7.2h18.36v11.76h-18.36z"/><path fill-rule="evenodd" clip-rule="evenodd" fill="#FFF" d="M99.2 88.44h18.36v11.76H99.2z"/><path fill="none" stroke="#92D050" stroke-width="2.28" stroke-miterlimit="10" d="M99.2 88.44h18.36v11.76H99.2z"/><path fill-rule="evenodd" clip-rule="evenodd" fill="#FFF" d="M132.68 36.24h18.36V48h-18.36z"/><path fill="none" stroke="#92D050" stroke-width="2.28" stroke-miterlimit="10" d="M132.68 36.24h18.36V48h-18.36z"/></svg>