<svg xml:space="preserve" xmlns:xlink="http://www.w3.org/1999/xlink" xmlns="http://www.w3.org/2000/svg" viewBox="0 0 423.03 95.28"><g transform="translate(-296.4 -207.6)"><defs><path id="a" d="M0 0h960v540H0z"/></defs><clipPath id="b"><use xlink:href="#a" overflow="visible" width="100%" height="100%"/></clipPath><g clip-path="url(#b)"><path d="M320.5 249.844c-.672 0-1.26-.259-1.764-.777s-.756-1.12-.756-1.806c0-.686.252-1.267.756-1.743.504-.476 1.092-.714 1.764-.714.672 0 1.26.238 1.764.714.504.477.756 1.057.756 1.743 0 .686-.252 1.288-.756 1.806s-1.092.777-1.764.777zm-1.848 22.344v-20.203c1.875 0 2.968.105 3.276.315.308.21.462.945.462 2.205v20.202c-1.876 0-2.968-.104-3.276-.315-.308-.209-.462-.944-.462-2.204zm19.026-8.862.042-3.696c0-1.12-.028-1.959-.084-2.52-.112-1.176-.77-1.792-1.974-1.848l-3.864 1.134.378 1.176v16.968c-1.876 0-2.968-.105-3.276-.315-.309-.21-.462-.944-.462-2.204v-20.035c1.624 0 2.646.042 3.066.126.42.084.644.336.672.756l3.108-1.176c1.708 0 2.828.112 3.36.336.531.225.938.42 1.218.588.28.168.532.511.756 1.029.224.519.378.994.462 1.428.084.434.168 1.127.252 2.079.084 1.373.126 3.444.126 6.216v11.172c-1.876 0-2.976-.105-3.297-.315-.322-.21-.483-.944-.483-2.204zm17.01-11.34c0 1.596-.147 2.583-.441 2.961-.294.378-1.155.567-2.583.567h-1.218l.378 1.05v8.316c0 2.38.091 4.011.273 4.893.182.882.567 1.379 1.155 1.491h3.192v3.276l-3.402.21c-1.4 0-2.325-.141-2.772-.42a14.983 14.983 0 0 1-1.008-.672c-.225-.168-.42-.511-.588-1.029a23.554 23.554 0 0 1-.378-1.26c-.084-.321-.147-.91-.189-1.764a44.65 44.65 0 0 1-.063-2.121v-10.92l.336-1.05h-2.226v-3.528h2.226l-.336-1.554v-2.142c1.875 0 2.975.091 3.297.273.322.183.483.847.483 1.995l-.336 1.428zm12.263 5.208.042-1.134c0-.392-.042-.602-.126-.63a.913.913 0 0 1-.294-.189c-.112-.098-.259-.119-.441-.063-.182.056-.399.07-.651.042l-2.268.294c-.588.084-1.092.126-1.512.126-.42 0-.742-.098-.966-.294-.224-.196-.448-1.092-.672-2.688l4.872-.966c1.988 0 3.234.147 3.738.441.504.294.868.54 1.092.735.224.196.378.588.462 1.176.14.729.21 1.876.21 3.444v17.052c-1.624 0-2.646-.084-3.066-.252-.42-.168-.645-.573-.672-1.218l-3.486 1.764c-.784 0-1.365-.007-1.743-.021a2.408 2.408 0 0 1-1.134-.357c-.378-.223-.63-.447-.756-.672-.126-.224-.246-.699-.357-1.428-.141-.868-.21-2.646-.21-5.334v-2.898c0-3.164 2.757-4.802 8.274-4.914l-.336-1.008zm-3.99 14.07c.028 0 1.442-.531 4.242-1.596l-.42-1.218v-4.998l.336-.966c-1.148.028-2.157.141-3.024.336-.868.196-1.302.462-1.302.798l-.042 5.544c0 1.4.07 2.1.21 2.1zm24.444-18.816c.14.168.21.322.21.462s-.015.238-.042.294c-.028.225-.126.729-.294 1.512l-4.032 19.824h-4.662l-4.62-22.554c1.232 0 2.1.063 2.604.189s.847.33 1.029.609c.182.28.357.813.525 1.596l2.814 15.162h.126l3.108-17.556c1.904 0 2.982.154 3.234.462zm6.72-2.604c-.672 0-1.26-.259-1.764-.777s-.756-1.12-.756-1.806c0-.686.252-1.267.756-1.743.504-.476 1.092-.714 1.764-.714.672 0 1.26.238 1.764.714.504.477.756 1.057.756 1.743 0 .686-.252 1.288-.756 1.806-.505.518-1.093.777-1.764.777zm-1.849 22.344v-20.203c1.875 0 2.968.105 3.276.315.308.21.462.945.462 2.205v20.202c-1.876 0-2.968-.104-3.276-.315-.308-.209-.462-.944-.462-2.204zm17.221-14.994.042-1.134c0-.392-.042-.602-.126-.63a.913.913 0 0 1-.294-.189c-.112-.098-.259-.119-.441-.063-.182.056-.399.07-.651.042l-2.268.294c-.588.084-1.092.126-1.512.126-.42 0-.742-.098-.966-.294-.224-.196-.448-1.092-.672-2.688l4.872-.966c1.988 0 3.234.147 3.738.441.504.294.868.54 1.092.735.224.196.378.588.462 1.176.14.729.21 1.876.21 3.444v17.052c-1.624 0-2.646-.084-3.066-.252-.42-.168-.645-.573-.672-1.218l-3.486 1.764c-.784 0-1.365-.007-1.743-.021a2.408 2.408 0 0 1-1.134-.357c-.378-.223-.63-.447-.756-.672-.126-.224-.246-.699-.357-1.428-.141-.868-.21-2.646-.21-5.334v-2.898c0-3.164 2.757-4.802 8.274-4.914l-.336-1.008zm-3.991 14.07c.028 0 1.442-.531 4.242-1.596l-.42-1.218v-4.998l.336-.966c-1.148.028-2.157.141-3.024.336-.868.196-1.302.462-1.302.798l-.042 5.544c0 1.4.07 2.1.21 2.1z"/></g></g><path fill="none" stroke="#00b050" stroke-width="2.28" stroke-miterlimit="10" d="M1.14 92.34c0-7.75 13.27-14.04 29.64-14.04s29.64 6.29 29.64 14.04M1.14 35.7c0-7.75 13.27-14.04 29.64-14.04s29.64 6.29 29.64 14.04m0 37.56V92.4M1.14 35.7v56.71M60.42 35.7v5.07"/><path fill-rule="evenodd" clip-rule="evenodd" fill="#fff" d="M78.54 13.98H96.9v11.76H78.54z"/><path fill="none" stroke="#92d050" stroke-width="2.28" stroke-miterlimit="10" d="M78.54 13.98H96.9v11.76H78.54z"/><path fill-rule="evenodd" clip-rule="evenodd" fill="#fff" d="M113.58 1.14h18.36V12.9h-18.36z"/><path fill="none" stroke="#92d050" stroke-width="2.28" stroke-miterlimit="10" d="M113.58 1.14h18.36V12.9h-18.36z"/><path fill-rule="evenodd" clip-rule="evenodd" fill="#fff" d="M90.06 82.38h18.48v11.76H90.06z"/><path fill="none" stroke="#92d050" stroke-width="2.28" stroke-miterlimit="10" d="M90.06 82.38h18.48v11.76H90.06z"/><path fill-rule="evenodd" clip-rule="evenodd" fill="#fff" d="M131.46 25.74h18.36V37.5h-18.36z"/><path fill="none" stroke="#92d050" stroke-width="2.28" stroke-miterlimit="10" d="M131.46 25.74h18.36V37.5h-18.36z"/><g transform="translate(-296.4 -207.6)"><defs><path id="c" d="M0 0h960v540H0z"/></defs><clipPath id="d"><use xlink:href="#c" overflow="visible" width="100%" height="100%"/></clipPath><g clip-path="url(#d)" fill="#876957"><path d="M429.741 273.91v-12.604h1.134v12.604zm8.533 0v-6.592a1.57 1.57 0 0 0-.954-1.442 1.53 1.53 0 0 0-.611-.123h-.721a1.57 1.57 0 0 0-1.442.954 1.53 1.53 0 0 0-.123.611v6.592h-1.081v-9h.36l.589.914c.246-.334.555-.599.927-.795a2.572 2.572 0 0 1 1.217-.294h.272c.363 0 .706.069 1.028.207a2.656 2.656 0 0 1 1.618 2.439v6.53h-1.079zm2.522 1.081 5.019-14.757h1.134l-5.019 14.757zm11.013-12.603v11.522h-1.134v-11.522h-3.006v-1.081h7.146v1.081zm9.271 11.522-.598-.896a2.784 2.784 0 0 1-.923.777 2.545 2.545 0 0 1-1.213.295h-.272a2.648 2.648 0 0 1-2.439-1.617 2.587 2.587 0 0 1-.207-1.028v-.088c0-.363.069-.706.207-1.028a2.656 2.656 0 0 1 2.439-1.618h2.285v-1.389a1.57 1.57 0 0 0-.954-1.442 1.53 1.53 0 0 0-.611-.123h-.633a1.57 1.57 0 0 0-1.442.954 1.53 1.53 0 0 0-.123.611v.325l-1.081-.176v-.088c0-.363.069-.706.207-1.028a2.656 2.656 0 0 1 2.439-1.618h.633c.363 0 .706.069 1.028.207a2.656 2.656 0 0 1 1.618 2.439v6.53h-.36zm-.721-4.359h-2.285a1.547 1.547 0 0 0-1.108.461 1.622 1.622 0 0 0-.334.501c-.082.19-.123.394-.123.61v.378c0 .217.041.421.123.611a1.57 1.57 0 0 0 1.442.953h.721a1.57 1.57 0 0 0 1.442-.953 1.53 1.53 0 0 0 .123-.611v-1.95zm8.174 4.359v-6.592a1.57 1.57 0 0 0-.954-1.442 1.53 1.53 0 0 0-.611-.123h-.721a1.57 1.57 0 0 0-1.442.954 1.53 1.53 0 0 0-.123.611v6.592h-1.081v-9h.36l.589.914c.246-.334.555-.599.927-.795a2.572 2.572 0 0 1 1.217-.294h.272c.363 0 .706.069 1.028.207a2.656 2.656 0 0 1 1.618 2.439v6.53h-1.079zm9.136 2.136a2.342 2.342 0 0 1-.567.782c-.24.217-.521.385-.844.506-.322.119-.665.18-1.028.18h-.448c-.363 0-.706-.061-1.028-.18a2.615 2.615 0 0 1-.844-.506 2.352 2.352 0 0 1-.774-1.784v-.035a2.372 2.372 0 0 1 .72-1.732 1.906 1.906 0 0 1-.922-1.652c0-.316.067-.611.202-.883.135-.273.319-.494.554-.664a2.708 2.708 0 0 1-.668-.888 2.614 2.614 0 0 1-.246-1.134v-.677c0-.363.069-.706.207-1.028a2.656 2.656 0 0 1 2.439-1.618h.448c.439 0 .845.098 1.217.294.372.196.681.461.927.795l.589-.914h.36v3.146c0 .363-.069.706-.207 1.028a2.656 2.656 0 0 1-2.439 1.618h-1.564a.853.853 0 0 0-.352.075 1.01 1.01 0 0 0-.294.197.917.917 0 0 0 .646 1.564h1.477c.363 0 .706.061 1.028.18.322.121.604.289.844.506a2.352 2.352 0 0 1 .774 1.784v.035c0 .366-.069.7-.207 1.005zm-.777-8.728a1.547 1.547 0 0 0-.461-1.108 1.622 1.622 0 0 0-.501-.334 1.526 1.526 0 0 0-.611-.123h-.896a1.57 1.57 0 0 0-1.442.954 1.53 1.53 0 0 0-.123.611v.8a1.57 1.57 0 0 0 .954 1.442c.191.082.394.123.611.123h.896c.217 0 .42-.041.611-.123.191-.082.357-.193.501-.334a1.532 1.532 0 0 0 .461-1.108zm-.044 7.638a1.35 1.35 0 0 0-.123-.585 1.264 1.264 0 0 0-.334-.435 1.512 1.512 0 0 0-.497-.272 1.908 1.908 0 0 0-.611-.097h-.554c-.217 0-.42.032-.611.097a1.549 1.549 0 0 0-.497.272 1.254 1.254 0 0 0-.334.435 1.35 1.35 0 0 0-.123.585v.141c0 .217.041.41.123.58.082.17.193.314.334.435.141.121.306.213.497.277.191.064.394.097.611.097h.554c.217 0 .42-.032.611-.097s.356-.157.497-.277c.141-.12.252-.265.334-.435.082-.17.123-.363.123-.58zm3.375-12.208v-1.441h1.257v1.441zm.088 11.162v-9h1.081v9zm9.408-1.441a2.62 2.62 0 0 1-1.41 1.41 2.583 2.583 0 0 1-1.028.207h-.721a2.648 2.648 0 0 1-1.872-.773 2.62 2.62 0 0 1-.566-.844 2.566 2.566 0 0 1-.207-1.028v-10.134h1.081v4.359a2.579 2.579 0 0 1 2.013-.932h.272c.363 0 .706.069 1.028.207a2.637 2.637 0 0 1 1.617 2.439v4.061c0 .363-.07.705-.207 1.028zm-.874-5.151a1.57 1.57 0 0 0-.954-1.442 1.525 1.525 0 0 0-.61-.123h-.721a1.57 1.57 0 0 0-1.441.954 1.53 1.53 0 0 0-.123.611v4.184c0 .217.041.421.123.611a1.57 1.57 0 0 0 1.441.953h.721a1.58 1.58 0 0 0 1.107-.457c.141-.141.252-.306.334-.496a1.53 1.53 0 0 0 .123-.611zm3.441 6.592v-12.604h1.081v12.604zm9.409-1.441a2.62 2.62 0 0 1-1.411 1.41 2.583 2.583 0 0 1-1.028.207h-.721a2.648 2.648 0 0 1-2.439-1.617 2.603 2.603 0 0 1-.206-1.028v-4.061c0-.363.068-.706.206-1.028a2.656 2.656 0 0 1 2.439-1.618h.721c.363 0 .706.069 1.028.207a2.656 2.656 0 0 1 1.411 1.411 2.6 2.6 0 0 1 .206 1.028v2.118h-4.931v2.004c0 .217.041.421.123.611a1.576 1.576 0 0 0 .83.83c.19.082.395.123.611.123h.721c.217 0 .42-.041.611-.123a1.576 1.576 0 0 0 .83-.83 1.53 1.53 0 0 0 .123-.611v-.598l1.081.176v.36c.001.364-.068.706-.205 1.029zm-.875-5.151a1.57 1.57 0 0 0-.953-1.442 1.533 1.533 0 0 0-.611-.123h-.721c-.217 0-.421.041-.611.123a1.57 1.57 0 0 0-.953 1.442v1.336h3.85v-1.336zm7.564 6.592v-12.604h7.093v1.081h-5.959v4.685h4.825v1.081h-4.825v4.676h5.959v1.081zm14.546 0-.598-.914a2.7 2.7 0 0 1-.923.795 2.545 2.545 0 0 1-1.213.295h-.272a2.648 2.648 0 0 1-2.439-1.617 2.603 2.603 0 0 1-.206-1.028v-6.53h1.081v6.592c0 .217.041.421.123.611a1.576 1.576 0 0 0 .83.83c.19.082.395.123.611.123h.721c.217 0 .42-.041.611-.123a1.576 1.576 0 0 0 .83-.83 1.53 1.53 0 0 0 .123-.611v-6.592h1.081v9h-.36zm5.168-7.972c-.217 0-.421.041-.611.123a1.57 1.57 0 0 0-.953 1.442v6.407h-1.081v-9h.36l.589.914c.246-.334.555-.599.927-.795a2.573 2.573 0 0 1 1.218-.294h.633v1.204h-1.082zm8.328 6.531a2.62 2.62 0 0 1-1.411 1.41 2.583 2.583 0 0 1-1.028.207h-.721a2.648 2.648 0 0 1-2.439-1.617 2.603 2.603 0 0 1-.206-1.028v-4.061c0-.363.068-.706.206-1.028a2.656 2.656 0 0 1 2.439-1.618h.721c.363 0 .706.069 1.028.207a2.656 2.656 0 0 1 1.411 1.411 2.6 2.6 0 0 1 .206 1.028v4.061c0 .363-.069.705-.206 1.028zm-.875-5.151a1.57 1.57 0 0 0-.953-1.442 1.533 1.533 0 0 0-.611-.123h-.721c-.217 0-.421.041-.611.123a1.57 1.57 0 0 0-.953 1.442v4.184c0 .217.041.421.123.611a1.576 1.576 0 0 0 .83.83c.19.082.395.123.611.123h.721c.217 0 .42-.041.611-.123a1.576 1.576 0 0 0 .83-.83 1.53 1.53 0 0 0 .123-.611zm9.049 5.151a2.62 2.62 0 0 1-1.411 1.41 2.583 2.583 0 0 1-1.028.207h-.272a2.593 2.593 0 0 1-2.013-.932v4.359h-1.081V264.91h.36l.589.914c.246-.334.555-.599.927-.795a2.573 2.573 0 0 1 1.218-.294h.272c.363 0 .706.069 1.028.207a2.656 2.656 0 0 1 1.411 1.411 2.6 2.6 0 0 1 .206 1.028v4.061c0 .362-.07.704-.206 1.027zm-.875-5.151a1.57 1.57 0 0 0-.953-1.442 1.533 1.533 0 0 0-.611-.123h-.721c-.217 0-.421.041-.611.123a1.57 1.57 0 0 0-.953 1.442v4.184c0 .217.041.421.123.611a1.576 1.576 0 0 0 .83.83c.19.082.395.123.611.123h.721c.217 0 .42-.041.611-.123a1.576 1.576 0 0 0 .83-.83 1.53 1.53 0 0 0 .123-.611zm8.994 5.151a2.62 2.62 0 0 1-1.411 1.41 2.583 2.583 0 0 1-1.028.207h-.721a2.648 2.648 0 0 1-2.439-1.617 2.603 2.603 0 0 1-.206-1.028v-4.061c0-.363.068-.706.206-1.028a2.656 2.656 0 0 1 2.439-1.618h.721c.363 0 .706.069 1.028.207a2.656 2.656 0 0 1 1.411 1.411 2.6 2.6 0 0 1 .206 1.028v2.118h-4.931v2.004c0 .217.041.421.123.611a1.576 1.576 0 0 0 .83.83c.19.082.395.123.611.123h.721c.217 0 .42-.041.611-.123a1.576 1.576 0 0 0 .83-.83 1.53 1.53 0 0 0 .123-.611v-.598l1.081.176v.36c.001.364-.069.706-.205 1.029zm-.875-5.151a1.57 1.57 0 0 0-.953-1.442 1.533 1.533 0 0 0-.611-.123h-.721c-.217 0-.421.041-.611.123a1.57 1.57 0 0 0-.953 1.442v1.336h3.85v-1.336zm8.894 6.592-.598-.896a2.784 2.784 0 0 1-.923.777 2.545 2.545 0 0 1-1.213.295h-.272a2.648 2.648 0 0 1-2.439-1.617 2.603 2.603 0 0 1-.206-1.028v-.088c0-.363.068-.706.206-1.028a2.656 2.656 0 0 1 2.439-1.618h2.285v-1.389a1.57 1.57 0 0 0-.953-1.442 1.533 1.533 0 0 0-.611-.123h-.633c-.217 0-.421.041-.611.123a1.57 1.57 0 0 0-.953 1.442v.325l-1.081-.176v-.088c0-.363.068-.706.206-1.028a2.656 2.656 0 0 1 2.439-1.618h.633c.363 0 .706.069 1.028.207a2.656 2.656 0 0 1 1.411 1.411 2.6 2.6 0 0 1 .206 1.028v6.53h-.36zm-.72-4.359h-2.285a1.526 1.526 0 0 0-1.107.461 1.622 1.622 0 0 0-.334.501c-.082.19-.123.394-.123.61v.378c0 .217.041.421.123.611a1.576 1.576 0 0 0 .83.83c.19.082.395.123.611.123h.721c.217 0 .42-.041.611-.123a1.576 1.576 0 0 0 .83-.83 1.53 1.53 0 0 0 .123-.611zm8.173 4.359v-6.592a1.57 1.57 0 0 0-.953-1.442 1.533 1.533 0 0 0-.611-.123h-.721c-.217 0-.421.041-.611.123a1.57 1.57 0 0 0-.953 1.442v6.592h-1.081v-9h.36l.589.914c.246-.334.555-.599.927-.795a2.573 2.573 0 0 1 1.218-.294h.272c.363 0 .706.069 1.028.207a2.656 2.656 0 0 1 1.411 1.411 2.6 2.6 0 0 1 .206 1.028v6.53h-1.081zm13.505 0v-5.757h-4.825v5.757h-1.134v-12.604h1.134v5.766h4.825v-5.766h1.134v12.604zm9.335-1.441a2.62 2.62 0 0 1-1.41 1.41 2.583 2.583 0 0 1-1.028.207h-.721a2.648 2.648 0 0 1-1.872-.773 2.62 2.62 0 0 1-.566-.844 2.566 2.566 0 0 1-.207-1.028v-4.061a2.648 2.648 0 0 1 1.617-2.439 2.587 2.587 0 0 1 1.028-.207h.721c.363 0 .706.069 1.028.207a2.637 2.637 0 0 1 1.617 2.439v2.118h-4.931v2.004c0 .217.041.421.123.611a1.57 1.57 0 0 0 1.441.953h.721a1.58 1.58 0 0 0 1.107-.457c.141-.141.252-.306.334-.496a1.53 1.53 0 0 0 .123-.611v-.598l1.081.176v.36a2.57 2.57 0 0 1-.206 1.029zm-.874-5.151a1.57 1.57 0 0 0-.954-1.442 1.525 1.525 0 0 0-.61-.123h-.721a1.57 1.57 0 0 0-1.441.954 1.53 1.53 0 0 0-.123.611v1.336h3.85v-1.336zm5.889-1.38a1.57 1.57 0 0 0-1.441.954 1.53 1.53 0 0 0-.123.611v6.407H593.4v-9h.36l.589.914a2.69 2.69 0 0 1 .928-.795 2.566 2.566 0 0 1 1.217-.294h.633v1.204h-1.081zm2.795-3.19v-1.441h1.257v1.441zm.088 11.162v-9h1.081v9zm6.882 0a2.358 2.358 0 0 1-1.684-.695 2.494 2.494 0 0 1-.51-.756 2.27 2.27 0 0 1-.188-.923v-5.599h-1.617v-1.028h1.617v-2.162l1.081-.176v2.338h2.285v1.028h-2.285v5.651a1.285 1.285 0 0 0 .791 1.191c.158.067.328.101.51.101h.984v1.028h-.984zm8.622 0-.598-.896a2.784 2.784 0 0 1-.923.777 2.545 2.545 0 0 1-1.213.295h-.272a2.648 2.648 0 0 1-1.872-.773 2.62 2.62 0 0 1-.566-.844 2.566 2.566 0 0 1-.207-1.028v-.088a2.648 2.648 0 0 1 1.617-2.439 2.587 2.587 0 0 1 1.028-.207h2.285v-1.389a1.57 1.57 0 0 0-.954-1.442 1.525 1.525 0 0 0-.61-.123h-.633a1.57 1.57 0 0 0-1.441.954 1.53 1.53 0 0 0-.123.611v.325l-1.081-.176v-.088a2.648 2.648 0 0 1 1.617-2.439 2.587 2.587 0 0 1 1.028-.207h.633c.363 0 .706.069 1.028.207a2.637 2.637 0 0 1 1.617 2.439v6.53h-.36zm-.721-4.359h-2.285a1.547 1.547 0 0 0-1.107.461 1.622 1.622 0 0 0-.334.501c-.082.19-.123.394-.123.61v.378c0 .217.041.421.123.611a1.57 1.57 0 0 0 1.441.953h.721a1.58 1.58 0 0 0 1.107-.457c.141-.141.252-.306.334-.496a1.53 1.53 0 0 0 .123-.611zm9.136 6.495a2.34 2.34 0 0 1-.566.782c-.24.217-.521.385-.844.506-.322.119-.665.18-1.028.18h-.448c-.363 0-.706-.061-1.028-.18a2.615 2.615 0 0 1-.844-.506 2.338 2.338 0 0 1-.567-.782 2.414 2.414 0 0 1-.206-1.002v-.035a2.372 2.372 0 0 1 .72-1.732 1.907 1.907 0 0 1-.923-1.652c0-.316.067-.611.202-.883.135-.273.319-.494.554-.664a2.708 2.708 0 0 1-.668-.888 2.614 2.614 0 0 1-.246-1.134v-.677a2.648 2.648 0 0 1 1.617-2.439 2.587 2.587 0 0 1 1.028-.207h.448c.439 0 .845.098 1.217.294a2.7 2.7 0 0 1 .928.795l.589-.914h.36v3.146a2.664 2.664 0 0 1-.773 1.872 2.656 2.656 0 0 1-1.872.774h-1.564a.853.853 0 0 0-.352.075.998.998 0 0 0-.294.197.917.917 0 0 0 .646 1.564h1.477c.363 0 .706.061 1.028.18.322.121.604.289.844.506.24.217.429.478.566.782.137.304.207.639.207 1.002v.035c-.001.366-.071.7-.208 1.005zm-.778-8.728a1.547 1.547 0 0 0-.461-1.108 1.65 1.65 0 0 0-.502-.334 1.525 1.525 0 0 0-.61-.123h-.896a1.57 1.57 0 0 0-1.441.954 1.53 1.53 0 0 0-.123.611v.8a1.57 1.57 0 0 0 .954 1.442c.189.082.394.123.61.123h.896c.217 0 .42-.041.61-.123a1.65 1.65 0 0 0 .502-.334 1.547 1.547 0 0 0 .461-1.108zm-.044 7.638a1.35 1.35 0 0 0-.123-.585 1.264 1.264 0 0 0-.334-.435 1.522 1.522 0 0 0-.497-.272 1.902 1.902 0 0 0-.61-.097h-.554c-.217 0-.421.032-.611.097s-.355.155-.496.272a1.254 1.254 0 0 0-.334.435 1.35 1.35 0 0 0-.123.585v.141c0 .217.041.41.123.58.082.17.193.314.334.435.141.121.306.213.496.277.19.064.395.097.611.097h.554c.217 0 .42-.032.61-.097s.356-.157.497-.277c.141-.12.252-.265.334-.435.082-.17.123-.363.123-.58zm8.908-2.487a2.62 2.62 0 0 1-1.41 1.41 2.583 2.583 0 0 1-1.028.207h-.721a2.648 2.648 0 0 1-1.872-.773 2.62 2.62 0 0 1-.566-.844 2.566 2.566 0 0 1-.207-1.028v-4.061a2.648 2.648 0 0 1 1.617-2.439 2.587 2.587 0 0 1 1.028-.207h.721c.363 0 .706.069 1.028.207a2.637 2.637 0 0 1 1.617 2.439v2.118h-4.931v2.004c0 .217.041.421.123.611a1.57 1.57 0 0 0 1.441.953h.721a1.58 1.58 0 0 0 1.107-.457c.141-.141.252-.306.334-.496a1.53 1.53 0 0 0 .123-.611v-.598l1.081.176v.36c.001.364-.069.706-.206 1.029zm-.874-5.151a1.57 1.57 0 0 0-.954-1.442 1.525 1.525 0 0 0-.61-.123h-.721a1.57 1.57 0 0 0-1.441.954 1.53 1.53 0 0 0-.123.611v1.336h3.85v-1.336z"/></g></g><g transform="translate(-296.4 -207.6)"><defs><path id="e" d="M0 0h960v540H0z"/></defs><clipPath id="f"><use xlink:href="#e" overflow="visible" width="100%" height="100%"/></clipPath><g clip-path="url(#f)" fill="#b29888"><path d="m432.439 292.741.035.466.035-.466 2.795-9.835h1.169l-3.709 12.604h-.598l-3.691-12.604h1.178zm5.564-8.393v-1.441h1.257v1.441zm.088 11.162v-9h1.081v9zm9.791-2.285c0 .363-.073.696-.22.998a2.387 2.387 0 0 1-.598.777 2.788 2.788 0 0 1-.875.506c-.331.119-.678.18-1.042.18h-.721a2.764 2.764 0 0 1-2.51-1.617 2.408 2.408 0 0 1-.224-1.028v-.36l1.081-.176v.598c0 .217.045.421.136.611.091.19.212.355.365.496.153.141.328.252.527.334.199.082.407.123.624.123h.721c.217 0 .425-.032.624-.097s.376-.156.532-.276c.156-.12.278-.266.369-.436.091-.17.136-.363.136-.58 0-.322-.07-.586-.211-.791a1.76 1.76 0 0 0-.558-.514 3.65 3.65 0 0 0-.791-.344c-.296-.09-.599-.181-.91-.271a9.85 9.85 0 0 1-.91-.313 2.96 2.96 0 0 1-.791-.461 2.13 2.13 0 0 1-.558-.717c-.141-.287-.211-.645-.211-1.072 0-.363.07-.695.211-.998.141-.301.331-.561.571-.777.24-.216.52-.385.839-.506a2.91 2.91 0 0 1 1.024-.18h.633a2.664 2.664 0 0 1 1.872.773 2.656 2.656 0 0 1 .774 1.872v.035l-1.081.176v-.272c0-.217-.041-.42-.123-.611a1.57 1.57 0 0 0-1.442-.953h-.633c-.217 0-.42.032-.611.097a1.52 1.52 0 0 0-.497.276 1.326 1.326 0 0 0-.334.436c-.082.17-.123.363-.123.58 0 .311.07.564.211.76.141.197.327.362.558.497.231.135.495.248.791.339.296.091.598.184.905.281.308.096.609.206.905.329.296.123.56.281.791.475.231.194.417.435.558.726.146.288.216.647.216 1.075zm7.78 2.285-.598-.914a2.7 2.7 0 0 1-.923.795 2.545 2.545 0 0 1-1.213.295h-.272a2.648 2.648 0 0 1-2.439-1.617 2.587 2.587 0 0 1-.207-1.028v-6.53h1.081v6.592c0 .217.041.421.123.611a1.57 1.57 0 0 0 1.442.953h.721a1.57 1.57 0 0 0 1.442-.953 1.53 1.53 0 0 0 .123-.611v-6.592h1.081v9h-.361zm8.173 0-.598-.896a2.784 2.784 0 0 1-.923.777 2.545 2.545 0 0 1-1.213.295h-.272a2.648 2.648 0 0 1-2.439-1.617 2.587 2.587 0 0 1-.207-1.028v-.088c0-.363.069-.706.207-1.028a2.637 2.637 0 0 1 2.439-1.617h2.285v-1.389c0-.217-.041-.42-.123-.611a1.57 1.57 0 0 0-1.442-.953h-.633a1.57 1.57 0 0 0-1.442.953 1.533 1.533 0 0 0-.123.611v.325l-1.081-.176v-.088c0-.363.069-.706.207-1.028a2.637 2.637 0 0 1 2.439-1.617h.633a2.664 2.664 0 0 1 1.872.773 2.656 2.656 0 0 1 .774 1.872v6.53zm-.72-4.36h-2.285a1.547 1.547 0 0 0-1.108.461 1.65 1.65 0 0 0-.334.502c-.082.19-.123.394-.123.61v.378c0 .217.041.421.123.611a1.57 1.57 0 0 0 1.442.953h.721a1.57 1.57 0 0 0 1.442-.953 1.53 1.53 0 0 0 .123-.611v-1.951zm3.603 4.36v-12.604h1.081v12.604zm12.76-2.936h-3.99l-.826 2.936h-1.178l3.691-12.604h.598l3.709 12.604h-1.169zm-3.683-1.081h3.384l-1.661-5.81-.035-.466-.035.466zm11.875 4.017v-6.592c0-.217-.041-.42-.123-.611a1.588 1.588 0 0 0-.334-.496 1.588 1.588 0 0 0-.496-.334 1.533 1.533 0 0 0-.611-.123h-.721c-.217 0-.421.041-.611.123a1.576 1.576 0 0 0-.83.83 1.533 1.533 0 0 0-.123.611v6.592h-1.081v-9h.36l.589.914c.246-.334.555-.599.927-.795a2.574 2.574 0 0 1 1.218-.295h.272a2.664 2.664 0 0 1 1.872.773c.24.24.429.521.567.844a2.6 2.6 0 0 1 .206 1.028v6.53h-1.081zm8.894 0-.598-.896a2.784 2.784 0 0 1-.923.777 2.545 2.545 0 0 1-1.213.295h-.272a2.648 2.648 0 0 1-2.439-1.617 2.603 2.603 0 0 1-.206-1.028v-.088c0-.363.068-.706.206-1.028a2.637 2.637 0 0 1 2.439-1.617h2.285v-1.389c0-.217-.041-.42-.123-.611a1.588 1.588 0 0 0-.334-.496 1.588 1.588 0 0 0-.496-.334 1.533 1.533 0 0 0-.611-.123h-.633c-.217 0-.421.041-.611.123a1.576 1.576 0 0 0-.83.83 1.533 1.533 0 0 0-.123.611v.325l-1.081-.176v-.088c0-.363.068-.706.206-1.028a2.637 2.637 0 0 1 2.439-1.617h.633a2.664 2.664 0 0 1 1.872.773c.24.24.429.521.567.844a2.6 2.6 0 0 1 .206 1.028v6.53zm-.72-4.36h-2.285a1.526 1.526 0 0 0-1.107.461 1.65 1.65 0 0 0-.334.502c-.082.19-.123.394-.123.61v.378c0 .217.041.421.123.611a1.576 1.576 0 0 0 .83.83c.19.082.395.123.611.123h.721c.217 0 .42-.041.611-.123a1.576 1.576 0 0 0 .83-.83 1.53 1.53 0 0 0 .123-.611zm3.603 4.36v-12.604h1.081v12.604zm5.063 3.603h-1.046l1.6-4.377-2.918-8.227h1.081l2.347 6.82.035.466.035-.466 2.338-6.82h1.081zm11.821-5.888c0 .363-.073.696-.22.998a2.387 2.387 0 0 1-.598.777 2.799 2.799 0 0 1-.875.506c-.331.119-.678.18-1.041.18h-.721c-.363 0-.711-.069-1.041-.207a2.758 2.758 0 0 1-1.469-1.41 2.435 2.435 0 0 1-.224-1.028v-.36l1.081-.176v.598c0 .217.045.421.137.611.09.19.212.355.364.496.152.141.328.252.527.334.199.082.407.123.624.123h.721c.217 0 .425-.032.624-.097s.376-.156.532-.276a1.38 1.38 0 0 0 .369-.436c.09-.17.136-.363.136-.58 0-.322-.07-.586-.211-.791a1.76 1.76 0 0 0-.558-.514 3.693 3.693 0 0 0-.791-.344c-.297-.09-.6-.181-.91-.271a9.953 9.953 0 0 1-.91-.313 2.96 2.96 0 0 1-.791-.461 2.13 2.13 0 0 1-.558-.717c-.141-.287-.211-.645-.211-1.072 0-.363.07-.695.211-.998.141-.301.331-.561.571-.777.24-.216.52-.385.84-.506a2.9 2.9 0 0 1 1.023-.18h.633a2.664 2.664 0 0 1 1.872.773c.24.24.429.521.567.844a2.6 2.6 0 0 1 .206 1.028v.035l-1.081.176v-.272c0-.217-.041-.42-.123-.611a1.588 1.588 0 0 0-.334-.496 1.588 1.588 0 0 0-.496-.334 1.533 1.533 0 0 0-.611-.123h-.633c-.217 0-.421.032-.611.097s-.355.157-.496.276a1.326 1.326 0 0 0-.334.436c-.082.17-.123.363-.123.58 0 .311.07.564.211.76.141.197.326.362.559.497a3.7 3.7 0 0 0 .791.339c.295.091.598.184.904.281.309.096.609.206.906.329.295.123.559.281.791.475.23.193.417.435.558.726.143.288.213.647.213 1.075zm2.347-8.877v-1.441h1.257v1.441zm.088 11.162v-9h1.081v9zm9.791-2.285c0 .363-.073.696-.22.998a2.387 2.387 0 0 1-.598.777 2.805 2.805 0 0 1-.874.506c-.332.119-.679.18-1.042.18h-.721c-.363 0-.711-.069-1.042-.207a2.749 2.749 0 0 1-1.467-1.41 2.406 2.406 0 0 1-.225-1.028v-.36l1.081-.176v.598c0 .217.045.421.136.611.091.19.213.355.365.496.152.141.328.252.527.334.199.082.407.123.624.123h.721c.217 0 .425-.032.624-.097a1.74 1.74 0 0 0 .531-.276c.155-.12.278-.266.369-.436.091-.17.137-.363.137-.58 0-.322-.07-.586-.211-.791a1.753 1.753 0 0 0-.559-.514 3.671 3.671 0 0 0-.791-.344c-.296-.09-.599-.181-.909-.271a9.83 9.83 0 0 1-.909-.313 2.903 2.903 0 0 1-.791-.461 2.12 2.12 0 0 1-.559-.717c-.141-.287-.211-.645-.211-1.072 0-.363.07-.695.211-.998.141-.301.331-.561.571-.777.24-.216.52-.385.839-.506a2.91 2.91 0 0 1 1.024-.18h.633a2.664 2.664 0 0 1 1.872.773 2.637 2.637 0 0 1 .773 1.872v.035l-1.081.176v-.272c0-.217-.041-.42-.123-.611a1.588 1.588 0 0 0-.334-.496 1.58 1.58 0 0 0-1.107-.457h-.633c-.217 0-.421.032-.61.097a1.502 1.502 0 0 0-.497.276 1.326 1.326 0 0 0-.334.436c-.082.17-.123.363-.123.58 0 .311.07.564.211.76.141.197.326.362.558.497.232.135.495.248.791.339.296.091.598.184.906.281.307.096.608.206.904.329.296.123.56.281.791.475.231.194.418.435.559.726.142.288.213.647.213 1.075zm2.707 4.807h-.457v-3.876h1.354zm14.4-4.236a3.115 3.115 0 0 1-1.647 1.647 3.018 3.018 0 0 1-1.204.242h-.896a3.094 3.094 0 0 1-2.861-1.889 3.018 3.018 0 0 1-.241-1.204v-6.768c0-.428.08-.829.241-1.204a3.11 3.11 0 0 1 2.861-1.889h.896c.428 0 .829.081 1.204.242a3.115 3.115 0 0 1 1.647 1.647c.161.375.242.776.242 1.204v.51l-1.134.176v-.686c0-.281-.053-.543-.158-.787a2.043 2.043 0 0 0-1.068-1.068 1.969 1.969 0 0 0-.787-.158h-.791c-.281 0-.544.053-.787.158a2.072 2.072 0 0 0-.641.431 1.969 1.969 0 0 0-.594 1.424v6.768c0 .281.053.544.158.787.105.243.25.457.436.641.184.186.397.33.641.436.244.106.506.158.787.158h.791a1.969 1.969 0 0 0 1.424-.594c.182-.184.325-.397.431-.641.106-.244.158-.506.158-.787v-.686l1.134.185v.501c0 .428-.081.829-.242 1.204zm8.056 1.714-.598-.914a2.7 2.7 0 0 1-.923.795 2.545 2.545 0 0 1-1.213.295h-.272a2.648 2.648 0 0 1-1.872-.773 2.62 2.62 0 0 1-.566-.844 2.566 2.566 0 0 1-.207-1.028v-6.53h1.081v6.592c0 .217.041.421.123.611a1.57 1.57 0 0 0 1.441.953h.721a1.58 1.58 0 0 0 1.107-.457c.141-.141.252-.306.334-.496a1.53 1.53 0 0 0 .123-.611v-6.592h1.081v9h-.36zm5.168-7.972a1.57 1.57 0 0 0-1.441.954c-.082.19-.123.394-.123.61v6.407h-1.081v-9h.36l.589.914a2.69 2.69 0 0 1 .928-.795 2.567 2.567 0 0 1 1.217-.295h.633v1.204h-1.082zm8.174 7.972-.598-.896a2.784 2.784 0 0 1-.923.777 2.545 2.545 0 0 1-1.213.295h-.272a2.648 2.648 0 0 1-1.872-.773 2.62 2.62 0 0 1-.566-.844 2.566 2.566 0 0 1-.207-1.028v-.088a2.648 2.648 0 0 1 .773-1.872 2.637 2.637 0 0 1 1.872-.773h2.285v-1.389c0-.217-.041-.42-.123-.611a1.588 1.588 0 0 0-.334-.496 1.58 1.58 0 0 0-1.107-.457h-.633a1.57 1.57 0 0 0-1.441.953 1.533 1.533 0 0 0-.123.611v.325l-1.081-.176v-.088a2.648 2.648 0 0 1 .773-1.872 2.637 2.637 0 0 1 1.872-.773h.633a2.664 2.664 0 0 1 1.872.773 2.637 2.637 0 0 1 .773 1.872v6.53zm-.721-4.36h-2.285a1.547 1.547 0 0 0-1.107.461 1.65 1.65 0 0 0-.334.502c-.082.19-.123.394-.123.61v.378c0 .217.041.421.123.611a1.57 1.57 0 0 0 1.441.953h.721a1.58 1.58 0 0 0 1.107-.457c.141-.141.252-.306.334-.496a1.53 1.53 0 0 0 .123-.611zm6.521 4.36a2.346 2.346 0 0 1-1.683-.695 2.458 2.458 0 0 1-.51-.756 2.255 2.255 0 0 1-.189-.923v-5.599h-1.617v-1.028h1.617v-2.162l1.081-.176v2.338h2.285v1.028h-2.285v5.651c0 .182.033.351.101.506a1.293 1.293 0 0 0 1.2.786h.984v1.028h-.984zm3.243-11.162v-1.441h1.257v1.441zm.088 11.162v-9h1.081v9zm9.409-1.442a2.62 2.62 0 0 1-1.41 1.41 2.583 2.583 0 0 1-1.028.207h-.721a2.648 2.648 0 0 1-1.872-.773 2.62 2.62 0 0 1-.566-.844 2.566 2.566 0 0 1-.207-1.028v-4.061a2.648 2.648 0 0 1 .773-1.872 2.637 2.637 0 0 1 1.872-.773h.721a2.664 2.664 0 0 1 1.872.773 2.637 2.637 0 0 1 .773 1.872v4.061a2.6 2.6 0 0 1-.207 1.028zm-.874-5.15c0-.217-.041-.42-.123-.611a1.588 1.588 0 0 0-.334-.496 1.58 1.58 0 0 0-1.107-.457h-.721a1.57 1.57 0 0 0-1.441.953 1.533 1.533 0 0 0-.123.611v4.184c0 .217.041.421.123.611a1.57 1.57 0 0 0 1.441.953h.721a1.58 1.58 0 0 0 1.107-.457c.141-.141.252-.306.334-.496a1.53 1.53 0 0 0 .123-.611zm8.173 6.592v-6.592c0-.217-.041-.42-.123-.611a1.588 1.588 0 0 0-.334-.496 1.58 1.58 0 0 0-1.107-.457h-.721a1.57 1.57 0 0 0-1.441.953 1.533 1.533 0 0 0-.123.611v6.592h-1.081v-9h.36l.589.914a2.69 2.69 0 0 1 .928-.795 2.567 2.567 0 0 1 1.217-.295h.272a2.664 2.664 0 0 1 1.872.773 2.637 2.637 0 0 1 .773 1.872v6.53h-1.081zm15.683.176c-.51 0-.953-.108-1.332-.325a2.471 2.471 0 0 1-.9-.879 3.224 3.224 0 0 1-1.081.879 3.027 3.027 0 0 1-1.389.325h-.536a3.094 3.094 0 0 1-2.861-1.889 3.018 3.018 0 0 1-.241-1.204v-.686c0-.299.04-.584.118-.857.08-.271.192-.525.339-.76a3.28 3.28 0 0 1 .519-.637c.2-.191.422-.351.668-.479a2.91 2.91 0 0 1-.668-.479 3.257 3.257 0 0 1-.519-.637 3.041 3.041 0 0 1-.457-1.617v-.615c0-.428.08-.829.241-1.204a3.11 3.11 0 0 1 2.861-1.889h.536c.428 0 .829.081 1.204.242a3.115 3.115 0 0 1 1.648 1.647c.16.375.241.776.241 1.204v.088l-1.134.185v-.272c0-.281-.053-.543-.158-.787a2.043 2.043 0 0 0-1.069-1.068 1.944 1.944 0 0 0-.786-.158h-.431c-.281 0-.544.053-.787.158a2.072 2.072 0 0 0-.641.431 1.969 1.969 0 0 0-.594 1.424v.791c0 .281.053.544.158.787.105.243.25.457.436.641.184.186.397.33.641.436.244.106.506.158.787.158h2.443v-1.151l1.134-.185v1.318h1.749v1.072h-1.749v3.032c.012.264.053.51.123.738.07.228.174.43.312.603s.31.307.515.404c.205.096.442.145.712.145h.264l-.158 1.072h-.158zm-3.99-1.222c.24-.1.449-.237.629-.413.178-.176.323-.381.435-.615a1.93 1.93 0 0 0 .185-.756v-2.962H603.4c-.281 0-.544.053-.787.158a2.072 2.072 0 0 0-.641.431 1.969 1.969 0 0 0-.594 1.424v.861c0 .281.053.544.158.787.105.243.25.457.436.641.184.186.397.33.641.436.244.106.506.158.787.158h.431c.268-.001.523-.051.763-.15zm17.765-.668a3.115 3.115 0 0 1-1.647 1.647 3.018 3.018 0 0 1-1.204.242h-.896a3.094 3.094 0 0 1-2.861-1.889 3.018 3.018 0 0 1-.241-1.204v-6.768c0-.428.08-.829.241-1.204a3.11 3.11 0 0 1 2.861-1.889h.896c.428 0 .829.081 1.204.242a3.115 3.115 0 0 1 1.647 1.647c.161.375.242.776.242 1.204v.51l-1.134.176v-.686c0-.281-.053-.543-.158-.787a2.043 2.043 0 0 0-1.068-1.068 1.969 1.969 0 0 0-.787-.158h-.791c-.281 0-.544.053-.787.158a2.072 2.072 0 0 0-.641.431 1.969 1.969 0 0 0-.594 1.424v6.768c0 .281.053.544.158.787.105.243.25.457.436.641.184.186.397.33.641.436.244.106.506.158.787.158h.791a1.969 1.969 0 0 0 1.424-.594c.182-.184.325-.397.431-.641.106-.244.158-.506.158-.787v-.686l1.134.185v.501c.001.428-.08.829-.242 1.204zm8.209.272a2.62 2.62 0 0 1-1.41 1.41 2.583 2.583 0 0 1-1.028.207h-.721a2.648 2.648 0 0 1-1.872-.773 2.62 2.62 0 0 1-.566-.844 2.566 2.566 0 0 1-.207-1.028v-4.061a2.648 2.648 0 0 1 .773-1.872 2.637 2.637 0 0 1 1.872-.773h.721a2.664 2.664 0 0 1 1.872.773 2.637 2.637 0 0 1 .773 1.872v4.061c0 .363-.069.706-.207 1.028zm-.874-5.15c0-.217-.041-.42-.123-.611a1.588 1.588 0 0 0-.334-.496 1.58 1.58 0 0 0-1.107-.457h-.721a1.57 1.57 0 0 0-1.441.953 1.533 1.533 0 0 0-.123.611v4.184c0 .217.041.421.123.611a1.57 1.57 0 0 0 1.441.953h.721a1.58 1.58 0 0 0 1.107-.457c.141-.141.252-.306.334-.496a1.53 1.53 0 0 0 .123-.611zm12.744 6.592v-6.592c0-.217-.041-.42-.123-.611a1.588 1.588 0 0 0-.334-.496 1.58 1.58 0 0 0-1.107-.457h-.536c-.217 0-.421.041-.611.123-.19.082-.357.193-.5.334a1.536 1.536 0 0 0-.462 1.107v6.592h-1.072v-6.592a1.53 1.53 0 0 0-.462-1.107 1.641 1.641 0 0 0-.5-.334 1.533 1.533 0 0 0-.611-.123h-.536a1.57 1.57 0 0 0-1.441.953 1.533 1.533 0 0 0-.123.611v6.592h-1.081v-9h.36l.589.914a2.69 2.69 0 0 1 .928-.795 2.567 2.567 0 0 1 1.217-.295h.088c.51 0 .97.126 1.38.378.41.252.727.586.949 1.002.111-.205.249-.393.413-.563a2.646 2.646 0 0 1 1.195-.716c.234-.067.478-.102.729-.102h.088a2.664 2.664 0 0 1 1.872.773 2.637 2.637 0 0 1 .773 1.872v6.53h-1.082zm12.745 0v-6.592c0-.217-.041-.42-.123-.611a1.588 1.588 0 0 0-.334-.496 1.58 1.58 0 0 0-1.107-.457h-.536c-.217 0-.421.041-.611.123-.19.082-.357.193-.5.334a1.536 1.536 0 0 0-.462 1.107v6.592h-1.072v-6.592a1.53 1.53 0 0 0-.462-1.107 1.641 1.641 0 0 0-.5-.334 1.533 1.533 0 0 0-.611-.123h-.536a1.57 1.57 0 0 0-1.441.953 1.533 1.533 0 0 0-.123.611v6.592h-1.081v-9h.36l.589.914a2.69 2.69 0 0 1 .928-.795 2.567 2.567 0 0 1 1.217-.295h.088c.51 0 .97.126 1.38.378.41.252.727.586.949 1.002.111-.205.249-.393.413-.563a2.646 2.646 0 0 1 1.195-.716c.234-.067.478-.102.729-.102h.088a2.664 2.664 0 0 1 1.872.773 2.637 2.637 0 0 1 .773 1.872v6.53h-1.082zm8.894 0-.598-.914a2.7 2.7 0 0 1-.923.795 2.545 2.545 0 0 1-1.213.295h-.272a2.648 2.648 0 0 1-1.872-.773 2.62 2.62 0 0 1-.566-.844 2.566 2.566 0 0 1-.207-1.028v-6.53h1.081v6.592c0 .217.041.421.123.611a1.57 1.57 0 0 0 1.441.953h.721a1.58 1.58 0 0 0 1.107-.457c.141-.141.252-.306.334-.496a1.53 1.53 0 0 0 .123-.611v-6.592h1.081v9h-.36zm7.453 0v-6.592c0-.217-.041-.42-.123-.611a1.588 1.588 0 0 0-.334-.496 1.58 1.58 0 0 0-1.107-.457h-.721a1.57 1.57 0 0 0-1.441.953 1.533 1.533 0 0 0-.123.611v6.592H666.6v-9h.36l.589.914a2.69 2.69 0 0 1 .928-.795 2.567 2.567 0 0 1 1.217-.295h.272a2.664 2.664 0 0 1 1.872.773 2.637 2.637 0 0 1 .773 1.872v6.53h-1.081zm3.516-11.162v-1.441h1.257v1.441zm.088 11.162v-9h1.081v9zm9.409-1.442a2.62 2.62 0 0 1-1.411 1.41 2.583 2.583 0 0 1-1.028.207h-.721a2.648 2.648 0 0 1-2.439-1.617 2.603 2.603 0 0 1-.206-1.028v-4.061c0-.363.068-.706.206-1.028a2.637 2.637 0 0 1 2.439-1.617h.721a2.664 2.664 0 0 1 1.872.773c.24.24.429.521.567.844a2.6 2.6 0 0 1 .206 1.028v.36l-1.081.176v-.598c0-.217-.041-.42-.123-.611a1.588 1.588 0 0 0-.334-.496 1.588 1.588 0 0 0-.496-.334 1.533 1.533 0 0 0-.611-.123h-.721c-.217 0-.421.041-.611.123a1.576 1.576 0 0 0-.83.83 1.533 1.533 0 0 0-.123.611v4.184c0 .217.041.421.123.611a1.576 1.576 0 0 0 .83.83c.19.082.395.123.611.123h.721c.217 0 .42-.041.611-.123a1.576 1.576 0 0 0 .83-.83 1.53 1.53 0 0 0 .123-.611v-.598l1.081.176v.36c0 .364-.069.707-.206 1.029zm8.02 1.442-.598-.896a2.784 2.784 0 0 1-.923.777 2.545 2.545 0 0 1-1.213.295h-.272a2.648 2.648 0 0 1-2.439-1.617 2.603 2.603 0 0 1-.206-1.028v-.088c0-.363.068-.706.206-1.028a2.637 2.637 0 0 1 2.439-1.617h2.285v-1.389c0-.217-.041-.42-.123-.611a1.588 1.588 0 0 0-.334-.496 1.588 1.588 0 0 0-.496-.334 1.533 1.533 0 0 0-.611-.123h-.633c-.217 0-.421.041-.611.123a1.576 1.576 0 0 0-.83.83 1.533 1.533 0 0 0-.123.611v.325l-1.081-.176v-.088c0-.363.068-.706.206-1.028a2.637 2.637 0 0 1 2.439-1.617h.633a2.664 2.664 0 0 1 1.872.773c.24.24.429.521.567.844a2.6 2.6 0 0 1 .206 1.028v6.53zm-.721-4.36h-2.285a1.526 1.526 0 0 0-1.107.461 1.65 1.65 0 0 0-.334.502c-.082.19-.123.394-.123.61v.378c0 .217.041.421.123.611a1.576 1.576 0 0 0 .83.83c.19.082.395.123.611.123h.721c.217 0 .42-.041.611-.123a1.576 1.576 0 0 0 .83-.83 1.53 1.53 0 0 0 .123-.611zm6.468 4.36a2.346 2.346 0 0 1-1.683-.695 2.458 2.458 0 0 1-.51-.756 2.255 2.255 0 0 1-.189-.923v-5.599h-1.617v-1.028h1.617v-2.162l1.081-.176v2.338h2.285v1.028h-2.285v5.651c0 .182.033.351.101.506a1.293 1.293 0 0 0 1.2.786h.984v1.028h-.984zm3.243-11.162v-1.441h1.257v1.441zm.088 11.162v-9h1.081v9zm9.408-1.442a2.62 2.62 0 0 1-1.41 1.41 2.583 2.583 0 0 1-1.028.207h-.721a2.648 2.648 0 0 1-1.872-.773 2.62 2.62 0 0 1-.566-.844 2.566 2.566 0 0 1-.207-1.028v-4.061a2.648 2.648 0 0 1 .773-1.872 2.637 2.637 0 0 1 1.872-.773h.721a2.664 2.664 0 0 1 1.872.773 2.637 2.637 0 0 1 .773 1.872v4.061c0 .363-.069.706-.207 1.028zm-.874-5.15c0-.217-.041-.42-.123-.611a1.588 1.588 0 0 0-.334-.496 1.58 1.58 0 0 0-1.107-.457h-.721a1.57 1.57 0 0 0-1.441.953 1.533 1.533 0 0 0-.123.611v4.184c0 .217.041.421.123.611a1.57 1.57 0 0 0 1.441.953h.721a1.58 1.58 0 0 0 1.107-.457c.141-.141.252-.306.334-.496a1.53 1.53 0 0 0 .123-.611zm8.174 6.592v-6.592c0-.217-.041-.42-.123-.611a1.588 1.588 0 0 0-.334-.496 1.58 1.58 0 0 0-1.107-.457h-.721a1.57 1.57 0 0 0-1.441.953 1.533 1.533 0 0 0-.123.611v6.592h-1.081v-9h.36l.589.914a2.69 2.69 0 0 1 .928-.795 2.567 2.567 0 0 1 1.217-.295h.272a2.664 2.664 0 0 1 1.872.773 2.637 2.637 0 0 1 .773 1.872v6.53h-1.081z"/></g></g></svg>